<svg xmlns="http://www.w3.org/2000/svg" width="15" height="18" viewBox="0 0 15 18" fill="none">
  <path d="M7.5 1.62134C5.9529 1.62134 4.46917 2.2189 3.37521 3.28258C2.28125 4.34626 1.66667 5.78891 1.66667 7.29318C1.66667 9.61215 3.15167 11.8493 4.78167 13.5824C5.61512 14.4653 6.52453 15.2775 7.5 16.01C7.64556 15.9014 7.81639 15.7691 8.0125 15.613C8.79567 14.9877 9.53276 14.3097 10.2183 13.5841C11.8483 11.8493 13.3333 9.61296 13.3333 7.29318C13.3333 5.78891 12.7188 4.34626 11.6248 3.28258C10.5308 2.2189 9.0471 1.62134 7.5 1.62134ZM7.5 18L7.0275 17.684L7.025 17.6824L7.02 17.6783L7.00333 17.667L6.94083 17.624L6.71583 17.4644C5.57572 16.6313 4.51656 15.6983 3.55167 14.6771C1.84833 12.8637 0 10.2393 0 7.29237C2.96403e-08 5.35831 0.790176 3.50347 2.1967 2.13589C3.60322 0.768301 5.51088 0 7.5 0C9.48912 0 11.3968 0.768301 12.8033 2.13589C14.2098 3.50347 15 5.35831 15 7.29237C15 10.2393 13.1517 12.8646 11.4483 14.6755C10.4837 15.6966 9.42483 16.6296 8.285 17.4628C8.19005 17.5318 8.0942 17.5996 7.9975 17.6662L7.98 17.6775L7.975 17.6816L7.97333 17.6824L7.5 18ZM7.5 5.67265C7.05797 5.67265 6.63405 5.84339 6.32149 6.14729C6.00893 6.4512 5.83333 6.86339 5.83333 7.29318C5.83333 7.72297 6.00893 8.13516 6.32149 8.43906C6.63405 8.74297 7.05797 8.91371 7.5 8.91371C7.94203 8.91371 8.36595 8.74297 8.67851 8.43906C8.99107 8.13516 9.16667 7.72297 9.16667 7.29318C9.16667 6.86339 8.99107 6.4512 8.67851 6.14729C8.36595 5.84339 7.94203 5.67265 7.5 5.67265ZM4.16667 7.29318C4.16667 6.4336 4.51786 5.60922 5.14298 5.00141C5.7681 4.39359 6.61594 4.05213 7.5 4.05213C8.38406 4.05213 9.2319 4.39359 9.85702 5.00141C10.4821 5.60922 10.8333 6.4336 10.8333 7.29318C10.8333 8.15276 10.4821 8.97714 9.85702 9.58495C9.2319 10.1928 8.38406 10.5342 7.5 10.5342C6.61594 10.5342 5.7681 10.1928 5.14298 9.58495C4.51786 8.97714 4.16667 8.15276 4.16667 7.29318Z" fill="currentColor"/>
</svg>