<svg xmlns="http://www.w3.org/2000/svg" width="24" height="24" viewBox="0 0 24 24" fill="none">
  <path fill-rule="evenodd" clip-rule="evenodd" d="M12.7922 23.2034L12.7762 23.2063L12.6816 23.2564L12.6549 23.2622L12.6362 23.2564L12.5416 23.2049C12.5273 23.2011 12.5167 23.2039 12.5096 23.2135L12.5042 23.2278L12.4816 23.8409L12.4882 23.8695L12.5016 23.8882L12.6402 23.9942L12.6602 23.9999L12.6762 23.9942L12.8149 23.8882L12.8309 23.8653L12.8362 23.8409L12.8136 23.2292C12.81 23.2139 12.8029 23.2053 12.7922 23.2034ZM13.1442 23.0416L13.1256 23.0444L12.8802 23.1777L12.8669 23.192L12.8629 23.2077L12.8869 23.8237L12.8936 23.8409L12.9042 23.8524L13.1722 23.9841C13.1891 23.9889 13.202 23.9851 13.2109 23.9727L13.2162 23.9526L13.1709 23.0731C13.1665 23.0549 13.1576 23.0444 13.1442 23.0416ZM12.1909 23.0444C12.185 23.0406 12.178 23.0394 12.1713 23.041C12.1646 23.0426 12.1587 23.0469 12.1549 23.053L12.1469 23.0731L12.1016 23.9526C12.1025 23.9698 12.11 23.9813 12.1242 23.987L12.1442 23.9841L12.4122 23.8509L12.4256 23.8395L12.4296 23.8237L12.4536 23.2077L12.4496 23.1905L12.4362 23.1762L12.1909 23.0444Z" fill="#F7F7F7"/>
  <path fill-rule="evenodd" clip-rule="evenodd" d="M23.0067 1.85322L23.1227 2.28011L23.2413 2.76429L23.3 3.0293L23.4187 3.6023L23.532 4.2369L23.64 4.93166C23.6738 5.17327 23.7067 5.42539 23.7387 5.68802L23.8253 6.50741C23.932 7.64051 24 8.94265 24 10.4196C24 11.8965 23.9333 13.1986 23.8267 14.3317L23.7387 15.1511C23.7076 15.4137 23.6747 15.6658 23.64 15.9075L23.5333 16.6022L23.4187 17.2368L23.3 17.8098L23.1813 18.3255L23.064 18.7796L23.0067 18.9859C22.5653 20.543 21.0547 21.1418 19.8147 20.6977L18.2413 20.1348L17.708 21.4713C17.4446 22.1317 16.9599 22.6617 16.3499 22.9562C15.7399 23.2507 15.0492 23.2883 14.4147 23.0614L7.62 20.6261C7.27025 20.5008 6.94849 20.2989 6.67504 20.0332C6.40159 19.7675 6.18239 19.4438 6.03128 19.0825C5.88017 18.7212 5.80044 18.3302 5.79712 17.9341C5.79381 17.538 5.86697 17.1455 6.012 16.7813L6.37067 15.8817L5.33333 15.5121L3.50933 16.1653C3.10845 16.3088 2.68157 16.3478 2.26388 16.2792C1.84619 16.2107 1.44964 16.0364 1.10692 15.7709C0.764197 15.5054 0.485111 15.1562 0.292659 14.752C0.100207 14.3479 -0.000101678 13.9004 7.73406e-08 13.4464V7.39412C-0.000101678 6.94016 0.100207 6.49267 0.292659 6.08852C0.485111 5.68438 0.764197 5.33516 1.10692 5.06963C1.44964 4.8041 1.84619 4.62988 2.26388 4.56131C2.68157 4.49274 3.10845 4.53179 3.50933 4.67524L5.33333 5.32846L19.8147 0.14282C21.0547 -0.301255 22.5653 0.296097 23.0067 1.85322ZM8.90933 16.7913L8.46267 17.9087L15.2573 20.3439L15.704 19.2251L8.90933 16.7913ZM20.5173 2.91041L6.66667 7.87115V12.968L20.5173 17.9287L20.62 17.5233L20.7267 17.0549L20.78 16.797L20.884 16.2326C20.9202 16.0235 20.954 15.8138 20.9853 15.6038L21.0787 14.909C21.228 13.6957 21.3333 12.2059 21.3333 10.4196C21.3333 8.63323 21.2267 7.14344 21.08 5.93011L20.9853 5.23535C20.9524 5.0157 20.9187 4.8056 20.884 4.60505L20.7787 4.04208L20.672 3.54214L20.5173 2.91041ZM2.66667 7.39412V13.4464L4 12.968V7.87115L2.66667 7.39412Z" fill="#051725"/>
</svg>