<svg xmlns="http://www.w3.org/2000/svg" width="24" height="24" viewBox="0 0 24 24" fill="none">
  <path d="M21.4258 17.38C21.3243 17.6243 21.1301 17.8185 20.8858 17.92C20.7656 17.9712 20.6365 17.9984 20.5058 18H15.5058C15.2406 18 14.9862 17.8946 14.7987 17.7071C14.6112 17.5196 14.5058 17.2652 14.5058 17C14.5058 16.7348 14.6112 16.4804 14.7987 16.2929C14.9862 16.1054 15.2406 16 15.5058 16H18.0958L12.5058 10.41L9.2158 13.71C9.12284 13.8037 9.01223 13.8781 8.89038 13.9289C8.76852 13.9797 8.63781 14.0058 8.5058 14.0058C8.37379 14.0058 8.24308 13.9797 8.12122 13.9289C7.99936 13.8781 7.88876 13.8037 7.7958 13.71L1.7958 7.71C1.70207 7.61704 1.62768 7.50644 1.57691 7.38458C1.52614 7.26272 1.5 7.13201 1.5 7C1.5 6.86799 1.52614 6.73728 1.57691 6.61542C1.62768 6.49356 1.70207 6.38297 1.7958 6.29C1.88876 6.19627 1.99936 6.12188 2.12122 6.07111C2.24308 6.02034 2.37379 5.9942 2.5058 5.9942C2.63781 5.9942 2.76852 6.02034 2.89037 6.07111C3.01223 6.12188 3.12284 6.19627 3.2158 6.29L8.5058 11.59L11.7958 8.29C11.8888 8.19627 11.9994 8.12188 12.1212 8.07111C12.2431 8.02034 12.3738 7.9942 12.5058 7.9942C12.6378 7.9942 12.7685 8.02034 12.8904 8.07111C13.0122 8.12188 13.1228 8.19627 13.2158 8.29L19.5058 14.59V12C19.5058 11.7348 19.6112 11.4804 19.7987 11.2929C19.9862 11.1054 20.2406 11 20.5058 11C20.771 11 21.0254 11.1054 21.2129 11.2929C21.4004 11.4804 21.5058 11.7348 21.5058 12V17C21.5042 17.1307 21.477 17.2598 21.4258 17.38Z" fill="#FF5050"/>
</svg>