<svg xmlns="http://www.w3.org/2000/svg" width="24" height="24" viewBox="0 0 24 24" fill="none">
  <path d="M14.707 7.29296C14.6148 7.19745 14.5044 7.12127 14.3824 7.06886C14.2604 7.01645 14.1292 6.98886 13.9964 6.98771C13.8636 6.98655 13.7319 7.01186 13.609 7.06214C13.4861 7.11242 13.3745 7.18667 13.2806 7.28056C13.1867 7.37446 13.1125 7.48611 13.0622 7.60901C13.0119 7.7319 12.9866 7.86358 12.9877 7.99636C12.9889 8.12914 13.0165 8.26036 13.0689 8.38236C13.1213 8.50437 13.1975 8.61471 13.293 8.70696L15.586 11H6C5.73478 11 5.48043 11.1053 5.29289 11.2929C5.10536 11.4804 5 11.7347 5 12C5 12.2652 5.10536 12.5195 5.29289 12.7071C5.48043 12.8946 5.73478 13 6 13H15.586L13.293 15.293C13.1108 15.4816 13.01 15.7342 13.0123 15.9964C13.0146 16.2586 13.1198 16.5094 13.3052 16.6948C13.4906 16.8802 13.7414 16.9854 14.0036 16.9876C14.2658 16.9899 14.5184 16.8891 14.707 16.707L18.707 12.707C18.8945 12.5194 18.9998 12.2651 18.9998 12C18.9998 11.7348 18.8945 11.4805 18.707 11.293L14.707 7.29296Z" fill="#91D200"/>
</svg>