<svg xmlns="http://www.w3.org/2000/svg" width="32" height="32" viewBox="0 0 32 32" fill="none">
  <path d="M10.7998 28.284C9.17762 27.5836 7.76651 26.6334 6.56651 25.4334C5.36651 24.2334 4.41673 22.8222 3.71717 21.2C3.01762 19.5778 2.66739 17.8445 2.66651 16C2.66562 14.1556 3.01584 12.4222 3.71717 10.8C4.41851 9.1778 5.36828 7.76669 6.56651 6.56669C7.76473 5.36669 9.17584 4.41691 10.7998 3.71736C12.4238 3.0178 14.1572 2.66758 15.9998 2.66669C17.8425 2.6658 19.5758 3.01602 21.1998 3.71736C22.8238 4.41869 24.235 5.36847 25.4332 6.56669C26.6314 7.76491 27.5816 9.17602 28.2838 10.8C28.9861 12.424 29.3358 14.1574 29.3332 16C29.3305 17.8427 28.9803 19.576 28.2825 21.2C27.5847 22.824 26.635 24.2351 25.4332 25.4334C24.2314 26.6316 22.8203 27.5818 21.1998 28.284C19.5794 28.9862 17.8461 29.336 15.9998 29.3334C14.1536 29.3307 12.4203 28.9818 10.7998 28.284ZM23.5665 23.5667C25.6332 21.5 26.6665 18.9778 26.6665 16C26.6665 13.0222 25.6332 10.5 23.5665 8.43336C21.4998 6.36669 18.9776 5.33336 15.9998 5.33336C13.0221 5.33336 10.4998 6.36669 8.43317 8.43336C6.36651 10.5 5.33317 13.0222 5.33317 16C5.33317 18.9778 6.36651 21.5 8.43317 23.5667C10.4998 25.6334 13.0221 26.6667 15.9998 26.6667C18.9776 26.6667 21.4998 25.6334 23.5665 23.5667ZM10.3332 21.6667C8.77762 20.1111 7.99984 18.2222 7.99984 16C7.99984 13.7778 8.77762 11.8889 10.3332 10.3334C11.8887 8.7778 13.7776 8.00002 15.9998 8.00002C18.2221 8.00002 20.111 8.7778 21.6665 10.3334C23.2221 11.8889 23.9998 13.7778 23.9998 16C23.9998 18.2222 23.2221 20.1111 21.6665 21.6667C20.111 23.2222 18.2221 24 15.9998 24C13.7776 24 11.8887 23.2222 10.3332 21.6667ZM19.7665 19.7667C20.8109 18.7222 21.3332 17.4667 21.3332 16C21.3332 14.5334 20.8109 13.2778 19.7665 12.2334C18.7221 11.1889 17.4665 10.6667 15.9998 10.6667C14.5332 10.6667 13.2776 11.1889 12.2332 12.2334C11.1887 13.2778 10.6665 14.5334 10.6665 16C10.6665 17.4667 11.1887 18.7222 12.2332 19.7667C13.2776 20.8111 14.5332 21.3334 15.9998 21.3334C17.4665 21.3334 18.7221 20.8111 19.7665 19.7667ZM14.1172 17.884C13.5945 17.3614 13.3332 16.7334 13.3332 16C13.3332 15.2667 13.5945 14.6391 14.1172 14.1174C14.6398 13.5956 15.2674 13.3342 15.9998 13.3334C16.7323 13.3325 17.3603 13.5938 17.8838 14.1174C18.4074 14.6409 18.6683 15.2685 18.6665 16C18.6647 16.7316 18.4038 17.3596 17.8838 17.884C17.3638 18.4085 16.7358 18.6694 15.9998 18.6667C15.2638 18.664 14.6363 18.4031 14.1172 17.884Z" fill="white"/>
</svg>