<svg xmlns="http://www.w3.org/2000/svg" width="32" height="32" viewBox="0 0 32 32" fill="none">
  <path fill-rule="evenodd" clip-rule="evenodd" d="M18.0352 18.1887C18.2711 18.1461 18.5103 18.1248 18.75 18.125C19.254 18.125 19.7362 18.2182 20.1805 18.3884L21.948 15.875L22.0155 15.9132C21.3602 15.1811 20.9986 14.2326 21 13.25C21 11.0409 22.7909 9.25 25 9.25C27.2091 9.25 29 11.0409 29 13.25C29 15.4591 27.2091 17.25 25 17.25C24.541 17.25 24.1 17.1726 23.6894 17.0304L21.9006 19.6601C22.4523 20.3632 22.7514 21.2313 22.75 22.125C22.75 24.3341 20.9591 26.125 18.75 26.125C16.5409 26.125 14.75 24.3341 14.75 22.125C14.75 20.9041 15.297 19.811 16.1593 19.0772L13.5638 13.9172C13.296 13.9726 13.0234 14.0003 12.75 14C12.4058 14.0003 12.0629 13.9562 11.73 13.8687L9.8905 17.11C10.6512 17.8381 11.125 18.8638 11.125 20C11.125 22.2091 9.33413 24 7.125 24C4.91587 24 3.125 22.2091 3.125 20C3.125 17.7909 4.91587 16 7.125 16C7.45687 16 7.77925 16.0404 8.0875 16.1165L9.93863 12.8453C9.20475 12.1204 8.75 11.1134 8.75 10C8.75 7.79087 10.5409 6 12.75 6C14.9591 6 16.75 7.79087 16.75 10C16.75 11.1954 16.2256 12.2683 15.3945 13.0013L18.0352 18.1887ZM25 15.25C26.1046 15.25 27 14.3546 27 13.25C27 12.1454 26.1046 11.25 25 11.25C23.8954 11.25 23 12.1454 23 13.25C23 14.3546 23.8954 15.25 25 15.25ZM7.125 22C8.22962 22 9.125 21.1046 9.125 20C9.125 18.8954 8.22962 18 7.125 18C6.02038 18 5.125 18.8954 5.125 20C5.125 21.1046 6.02038 22 7.125 22ZM12.75 12C13.8546 12 14.75 11.1046 14.75 10C14.75 8.89538 13.8546 8 12.75 8C11.6454 8 10.75 8.89538 10.75 10C10.75 11.1046 11.6454 12 12.75 12ZM18.75 24.125C19.8546 24.125 20.75 23.2296 20.75 22.125C20.75 21.0204 19.8546 20.125 18.75 20.125C17.6454 20.125 16.75 21.0204 16.75 22.125C16.75 23.2296 17.6454 24.125 18.75 24.125Z" fill="white"/>
</svg>