<svg xmlns="http://www.w3.org/2000/svg" width="48" height="48" viewBox="0 0 48 48" fill="none">
  <g clip-path="url(#clip0_107_5159)">
    <path d="M12.398 23.0424C12.1431 23.2964 12 23.6408 12 24C12 24.3592 12.1431 24.7036 12.398 24.9576L20.0873 32.6198C20.3436 32.8665 20.687 33.003 21.0434 32.9999C21.3997 32.9969 21.7407 32.8544 21.9927 32.6033C22.2447 32.3522 22.3876 32.0124 22.3907 31.6573C22.3938 31.3022 22.2568 30.96 22.0092 30.7046L16.6402 25.3545H34.6407C35.0012 25.3545 35.347 25.2118 35.6019 24.9577C35.8568 24.7037 36 24.3592 36 24C36 23.6408 35.8568 23.2963 35.6019 23.0423C35.347 22.7882 35.0012 22.6455 34.6407 22.6455H16.6402L22.0092 17.2954C22.2568 17.04 22.3938 16.6978 22.3907 16.3427C22.3876 15.9876 22.2447 15.6478 21.9927 15.3967C21.7407 15.1456 21.3997 15.0031 21.0434 15.0001C20.687 14.997 20.3436 15.1335 20.0873 15.3802L12.398 23.0424Z" fill="#91D200"/>
  </g>
  <rect x="0.5" y="0.5" width="47" height="47" rx="23.5" stroke="#91D200"/>
  <defs>
    <clipPath id="clip0_107_5159">
      <rect width="48" height="48" rx="24" fill="white"/>
    </clipPath>
  </defs>
</svg>