<svg xmlns="http://www.w3.org/2000/svg" width="24" height="24" viewBox="0 0 24 24" fill="none">
  <path d="M5 21C4.45 21 3.97933 20.8043 3.588 20.413C3.19667 20.0217 3.00067 19.5507 3 19V5C3 4.45 3.196 3.97933 3.588 3.588C3.98 3.19667 4.45067 3.00067 5 3H19C19.55 3 20.021 3.196 20.413 3.588C20.805 3.98 21.0007 4.45067 21 5V19C21 19.55 20.8043 20.021 20.413 20.413C20.0217 20.805 19.5507 21.0007 19 21H5ZM5 16.95V19H19V10.25L13.05 17L9 12.95L5 16.95ZM5 14.1L9 10.1L12.95 14.05L19 7.25V5H5V14.1ZM5 10.25V7.25V14.05V10.1V16.95V12.95V17V10.25ZM5 14.1V5V14.05V10.1V14.1ZM5 16.95V12.95V17V10.25V19V16.95Z" fill="#91D200"/>
</svg>