<svg width="80" height="80" viewBox="0 0 80 80" fill="none" xmlns="http://www.w3.org/2000/svg">
<path d="M43.3334 9.99992C56.2667 9.99992 66.6667 20.4666 66.6667 33.3333C66.6667 42.6666 61.2334 50.6333 53.3334 54.3666V69.9999H30V59.9999H26.6667C22.9667 59.9999 20 57.0333 20 53.3333V43.3333H15C13.6 43.3333 12.8 41.6666 13.6 40.6333L20 32.1999C20.2937 26.2109 22.8808 20.5646 27.2249 16.4314C31.5691 12.2983 37.3371 9.99529 43.3334 9.99992ZM43.3334 3.33325C28.0667 3.33325 15.3667 14.7666 13.5334 29.6999L8.33336 36.6666C6.40002 39.0666 6.06669 42.3999 7.46669 45.2999C8.66669 47.6999 10.8 49.3333 13.3334 49.8333V53.3333C13.3334 59.5333 17.6 64.7666 23.3334 66.2333V76.6666H60V58.2333C68.3334 52.7666 73.3334 43.5333 73.3334 33.3333C73.3334 16.7999 59.8667 3.33325 43.3334 3.33325ZM53.6667 31.3999V29.9999C53.6667 29.4999 53.6667 29.1999 53.4667 28.7333L56.4334 26.5333C56.6667 26.3999 56.6667 25.9333 56.6667 25.5999L53.9334 21.0666C53.7667 20.7666 53.3334 20.5999 53 20.7666L49.7 22.1666C49.1 21.5333 48.3334 21.0666 47.5334 20.7666L47 17.3333C46.9 16.8666 46.6667 16.6666 46.2667 16.6666H40.9667C40.6334 16.6666 40.3334 16.8666 40.3334 17.3333L39.8667 20.7666C39.1 21.0666 38.3334 21.5333 37.6667 22.1666L34.2334 20.7666C33.9334 20.5999 33.6667 20.7666 33.4667 21.0666L30.8 25.5999C30.6334 26.0666 30.6334 26.3999 30.9667 26.5333L33.7667 28.7333C33.7667 29.1999 33.6667 29.6666 33.6667 29.9999C33.6667 30.4666 33.7667 30.9333 33.7667 31.3999L30.9667 33.5666C30.6334 33.7333 30.6334 34.0333 30.8 34.3666L33.4667 39.0333C33.6667 39.3666 33.9334 39.3666 34.2334 39.3666L37.5334 37.9333C38.3334 38.5666 38.9334 38.8999 39.8667 39.1999L40.3334 42.7999C40.3334 43.0999 40.6334 43.3333 40.9667 43.3333H46.2667C46.6667 43.3333 46.9 43.0999 47 42.7999L47.5334 39.1999C48.3334 38.8999 49.1 38.5666 49.7 37.9666L53 39.3666C53.3334 39.3666 53.7667 39.3666 53.9334 39.0333L56.6667 34.3666C56.6667 34.0333 56.6667 33.7333 56.4334 33.5666L53.6667 31.3999ZM43.6667 34.8333C41.0667 34.8333 38.9334 32.6333 38.9334 29.9999C38.9334 27.3666 40.9667 25.2999 43.6667 25.2999C46.2667 25.2999 48.4667 27.3333 48.4667 29.9999C48.4667 32.6666 46.2667 34.8333 43.6667 34.8333Z" fill="#F7F7F7"/>
<path d="M53.6666 31.4001V30.0001C53.6666 29.5001 53.6666 29.2001 53.4666 28.7334L56.4332 26.5334C56.6666 26.4001 56.6666 25.9334 56.6666 25.6001L53.9332 21.0667C53.7666 20.7667 53.3332 20.6001 52.9999 20.7667L49.6999 22.1667C49.0999 21.5334 48.3332 21.0667 47.5332 20.7667L46.9999 17.3334C46.8999 16.8667 46.6666 16.6667 46.2666 16.6667H40.9666C40.6332 16.6667 40.3332 16.8667 40.3332 17.3334L39.8666 20.7667C39.0999 21.0667 38.3332 21.5334 37.6666 22.1667L34.2332 20.7667C33.9332 20.6001 33.6666 20.7667 33.4666 21.0667L30.7999 25.6001C30.6332 26.0667 30.6332 26.4001 30.9666 26.5334L33.7666 28.7334C33.7666 29.2001 33.6666 29.6667 33.6666 30.0001C33.6666 30.4667 33.7666 30.9334 33.7666 31.4001L30.9666 33.5667C30.6332 33.7334 30.6332 34.0334 30.7999 34.3667L33.4666 39.0334C33.6666 39.3667 33.9332 39.3667 34.2332 39.3667L37.5332 37.9334C38.3332 38.5667 38.9332 38.9001 39.8666 39.2001L40.3332 42.8001C40.3332 43.1001 40.6332 43.3334 40.9666 43.3334H46.2666C46.6666 43.3334 46.8999 43.1001 46.9999 42.8001L47.5332 39.2001C48.3332 38.9001 49.0999 38.5667 49.6999 37.9667L52.9999 39.3667C53.3332 39.3667 53.7666 39.3667 53.9332 39.0334L56.6666 34.3667C56.6666 34.0334 56.6666 33.7334 56.4332 33.5667L53.6666 31.4001ZM43.6666 34.8334C41.0666 34.8334 38.9332 32.6334 38.9332 30.0001C38.9332 27.3667 40.9666 25.3001 43.6666 25.3001C46.2666 25.3001 48.4666 27.3334 48.4666 30.0001C48.4666 32.6667 46.2666 34.8334 43.6666 34.8334Z" fill="#91D200"/>
</svg>
