<svg width="64" height="64" viewBox="0 0 64 64" fill="none" xmlns="http://www.w3.org/2000/svg">
<path d="M50.6667 50.6667H13.3333V21.3334H50.6667M42.6667 2.66675V8.00008H21.3333V2.66675H16V8.00008H13.3333C10.3733 8.00008 8 10.3734 8 13.3334V50.6667C8 52.0812 8.5619 53.4378 9.5621 54.438C10.5623 55.4382 11.9188 56.0001 13.3333 56.0001H50.6667C52.0812 56.0001 53.4377 55.4382 54.4379 54.438C55.4381 53.4378 56 52.0812 56 50.6667V13.3334C56 11.9189 55.4381 10.5624 54.4379 9.56218C53.4377 8.56198 52.0812 8.00008 50.6667 8.00008H48V2.66675M45.3333 32.0001H32V45.3334H45.3333V32.0001Z" fill="#565656"/>
</svg>
