<svg xmlns="http://www.w3.org/2000/svg" width="24" height="24" viewBox="0 0 24 24" fill="none">
  <path d="M15.25 2.75H8.75C5.43629 2.75 2.75 5.43629 2.75 8.75V15.25C2.75 18.5637 5.43629 21.25 8.75 21.25H15.25C18.5637 21.25 21.25 18.5637 21.25 15.25V8.75C21.25 5.43629 18.5637 2.75 15.25 2.75Z" stroke="#051725" stroke-width="2"/>
  <path d="M7 14.844L9.322 11.754C9.466 11.5646 9.67583 11.4361 9.91 11.394C10.1418 11.35 10.3817 11.3938 10.583 11.517L12.848 12.947C13.058 13.079 13.308 13.123 13.55 13.071C13.7934 13.0215 14.0077 12.8786 14.147 12.673L16.479 9.15601" stroke="#051725" stroke-width="2" stroke-linecap="round" stroke-linejoin="round"/>
  <path d="M13.6826 9.67801L16.4786 9.15601L16.9996 11.953" stroke="#051725" stroke-width="2" stroke-linecap="round" stroke-linejoin="round"/>
</svg>