<svg xmlns="http://www.w3.org/2000/svg" width="24" height="24" viewBox="0 0 24 24" fill="none">
  <path d="M11.875 20C11.9417 20 12.0084 19.9833 12.075 19.95C12.1417 19.9167 12.1917 19.8833 12.225 19.85L20.425 11.65C20.625 11.45 20.771 11.225 20.863 10.975C20.955 10.725 21.0007 10.475 21 10.225C21 9.95833 20.9544 9.704 20.863 9.462C20.7717 9.22 20.6257 9.00767 20.425 8.825L16.175 4.575C15.9917 4.375 15.779 4.22933 15.537 4.138C15.295 4.04667 15.0414 4.00067 14.776 4C14.526 4 14.276 4.046 14.026 4.138C13.776 4.23 13.551 4.37567 13.351 4.575L13.076 4.85L14.926 6.725C15.176 6.95833 15.3594 7.225 15.476 7.525C15.5927 7.825 15.651 8.14167 15.651 8.475C15.651 9.175 15.4137 9.76267 14.939 10.238C14.4644 10.7133 13.8767 10.9507 13.176 10.95C12.8427 10.95 12.522 10.8917 12.214 10.775C11.906 10.6583 11.635 10.4833 11.401 10.25L9.52503 8.4L5.15003 12.775C5.10003 12.825 5.06269 12.8793 5.03803 12.938C5.01336 12.9967 5.00069 13.059 5.00003 13.125C5.00003 13.2583 5.05003 13.3793 5.15003 13.488C5.25003 13.5967 5.36669 13.6507 5.50003 13.65C5.56669 13.65 5.63336 13.6333 5.70003 13.6C5.76669 13.5667 5.81669 13.5333 5.85003 13.5L8.55003 10.8C8.73336 10.6167 8.96269 10.5207 9.23803 10.512C9.51336 10.5033 9.75069 10.5993 9.95003 10.8C10.1334 10.9833 10.225 11.2167 10.225 11.5C10.225 11.7833 10.1334 12.0167 9.95003 12.2L7.27503 14.9C7.22503 14.95 7.18769 15.0043 7.16303 15.063C7.13836 15.1217 7.12569 15.184 7.12503 15.25C7.12503 15.3833 7.17503 15.5 7.27503 15.6C7.37503 15.7 7.49169 15.75 7.62503 15.75C7.69169 15.75 7.75836 15.7333 7.82503 15.7C7.89169 15.6667 7.94169 15.6333 7.97503 15.6L10.675 12.925C10.8584 12.7417 11.0877 12.6457 11.363 12.637C11.6384 12.6283 11.8757 12.7243 12.075 12.925C12.2584 13.1083 12.35 13.3417 12.35 13.625C12.35 13.9083 12.2584 14.1417 12.075 14.325L9.40003 17.025C9.35003 17.0583 9.31269 17.1083 9.28803 17.175C9.26336 17.2417 9.25069 17.3083 9.25003 17.375C9.25003 17.5083 9.30003 17.625 9.40003 17.725C9.50003 17.825 9.61669 17.875 9.75003 17.875C9.81669 17.875 9.87936 17.8623 9.93803 17.837C9.99669 17.8117 10.0507 17.7743 10.1 17.725L12.8 15.05C12.9834 14.8667 13.2127 14.7707 13.488 14.762C13.7634 14.7533 14.0007 14.8493 14.2 15.05C14.3834 15.2333 14.475 15.4667 14.475 15.75C14.475 16.0333 14.3834 16.2667 14.2 16.45L11.5 19.15C11.45 19.2 11.4127 19.2543 11.388 19.313C11.3634 19.3717 11.3507 19.434 11.35 19.5C11.35 19.6333 11.4044 19.75 11.513 19.85C11.6217 19.95 11.7424 20 11.875 20ZM11.85 22C11.2334 22 10.6877 21.796 10.213 21.388C9.73836 20.98 9.45903 20.4673 9.37503 19.85C8.80836 19.7667 8.33336 19.5333 7.95003 19.15C7.56669 18.7667 7.33336 18.2917 7.25003 17.725C6.68336 17.6417 6.21269 17.4043 5.83803 17.013C5.46336 16.6217 5.23403 16.1507 5.15003 15.6C4.51669 15.5167 4.00003 15.2417 3.60003 14.775C3.20003 14.3083 3.00003 13.7583 3.00003 13.125C3.00003 12.7917 3.06269 12.471 3.18803 12.163C3.31336 11.855 3.49236 11.584 3.72503 11.35L8.10003 6.975C8.48336 6.59167 8.95436 6.4 9.51303 6.4C10.0717 6.4 10.5424 6.59167 10.925 6.975L12.8 8.85C12.8334 8.9 12.8834 8.93767 12.95 8.963C13.0167 8.98833 13.0834 9.00067 13.15 9C13.3 9 13.425 8.95433 13.525 8.863C13.625 8.77167 13.675 8.65067 13.675 8.5C13.675 8.43333 13.6624 8.36667 13.637 8.3C13.6117 8.23333 13.5744 8.18333 13.525 8.15L9.95003 4.575C9.76669 4.375 9.55436 4.22933 9.31303 4.138C9.07169 4.04667 8.81736 4.00067 8.55003 4C8.30003 4 8.05003 4.046 7.80003 4.138C7.55003 4.23 7.32503 4.37567 7.12503 4.575L3.60003 8.125C3.36669 8.35833 3.20003 8.63333 3.10003 8.95C3.00003 9.26667 2.97503 9.58333 3.02503 9.9C3.07503 10.1833 3.01669 10.4333 2.85003 10.65C2.68336 10.8667 2.45836 10.9917 2.17503 11.025C1.89169 11.0583 1.64169 10.9957 1.42503 10.837C1.20836 10.6783 1.08336 10.4577 1.05003 10.175C0.950027 9.54167 0.996027 8.921 1.18803 8.313C1.38003 7.705 1.70903 7.16733 2.17503 6.7L5.70003 3.175C6.10003 2.79167 6.54603 2.5 7.03803 2.3C7.53003 2.1 8.03403 2 8.55003 2C9.06603 2 9.57036 2.1 10.063 2.3C10.5557 2.5 10.993 2.79167 11.375 3.175L11.65 3.45L11.925 3.175C12.325 2.79167 12.771 2.5 13.263 2.3C13.755 2.1 14.259 2 14.775 2C15.291 2 15.7954 2.1 16.288 2.3C16.7807 2.5 17.218 2.79167 17.6 3.175L21.825 7.4C22.2084 7.78333 22.5 8.225 22.7 8.725C22.9 9.225 23 9.73333 23 10.25C23 10.7667 22.9 11.271 22.7 11.763C22.5 12.255 22.2084 12.6923 21.825 13.075L13.625 21.25C13.3917 21.4833 13.121 21.6667 12.813 21.8C12.505 21.9333 12.184 22 11.85 22Z" fill="#91D200"/>
</svg>