<svg xmlns="http://www.w3.org/2000/svg" width="24" height="24" viewBox="0 0 24 24" fill="none">
  <path d="M8.70041 15.9L4.80041 12L8.70041 8.10003C8.79305 8.00851 8.8666 7.89951 8.9168 7.77935C8.967 7.65919 8.99285 7.53026 8.99285 7.40003C8.99285 7.26981 8.967 7.14088 8.9168 7.02072C8.8666 6.90056 8.79305 6.79156 8.70041 6.70003C8.60889 6.60739 8.49989 6.53384 8.37973 6.48364C8.25957 6.43344 8.13064 6.40759 8.00041 6.40759C7.87019 6.40759 7.74126 6.43344 7.6211 6.48364C7.50094 6.53384 7.39194 6.60739 7.30041 6.70003L2.71041 11.29C2.61771 11.3825 2.54416 11.4924 2.49398 11.6134C2.4438 11.7344 2.41797 11.8641 2.41797 11.995C2.41797 12.126 2.4438 12.2557 2.49398 12.3767C2.54416 12.4976 2.61771 12.6075 2.71041 12.7L7.30041 17.3C7.69041 17.69 8.31041 17.69 8.70041 17.3C8.79305 17.2085 8.8666 17.0995 8.9168 16.9793C8.967 16.8592 8.99285 16.7303 8.99285 16.6C8.99285 16.4698 8.967 16.3409 8.9168 16.2207C8.8666 16.1006 8.79305 15.9916 8.70041 15.9ZM15.3004 15.9L19.2004 12L15.3004 8.10003C15.2078 8.00851 15.1342 7.89951 15.084 7.77935C15.0338 7.65919 15.008 7.53026 15.008 7.40003C15.008 7.26981 15.0338 7.14088 15.084 7.02072C15.1342 6.90056 15.2078 6.79156 15.3004 6.70003C15.3919 6.60739 15.5009 6.53384 15.6211 6.48364C15.7413 6.43344 15.8702 6.40759 16.0004 6.40759C16.1306 6.40759 16.2596 6.43344 16.3797 6.48364C16.4999 6.53384 16.6089 6.60739 16.7004 6.70003L21.2904 11.29C21.6804 11.68 21.6804 12.31 21.2904 12.7L16.7004 17.3C16.6089 17.3927 16.4999 17.4662 16.3797 17.5164C16.2596 17.5666 16.1306 17.5925 16.0004 17.5925C15.8702 17.5925 15.7413 17.5666 15.6211 17.5164C15.5009 17.4662 15.3919 17.3927 15.3004 17.3C15.2078 17.2085 15.1342 17.0995 15.084 16.9793C15.0338 16.8592 15.008 16.7303 15.008 16.6C15.008 16.4698 15.0338 16.3409 15.084 16.2207C15.1342 16.1006 15.2078 15.9916 15.3004 15.9Z" fill="#051725"/>
</svg>