<svg xmlns="http://www.w3.org/2000/svg" width="32" height="32" viewBox="0 0 32 32" fill="none">
  <path d="M16 4C19.0853 4 21.9413 4.544 24.0773 5.47867C25.1427 5.94533 26.0893 6.53467 26.7867 7.25733C27.4333 7.924 27.9133 8.76133 27.9893 9.732L28 10V23.3333C28 24.4187 27.492 25.3467 26.7867 26.076C26.0893 26.7987 25.1427 27.388 24.0773 27.8547C21.9413 28.788 19.0853 29.3333 16 29.3333C12.9147 29.3333 10.0587 28.7893 7.92267 27.8547C6.85733 27.388 5.91067 26.7987 5.21333 26.076C4.56667 25.4093 4.08667 24.572 4.01067 23.6013L4 23.3333V10C4 8.91467 4.508 7.98667 5.21333 7.25733C5.91067 6.53467 6.85733 5.94533 7.92267 5.47867C10.0587 4.54533 12.9147 4 16 4ZM25.3333 20.5427C24.9294 20.7853 24.5098 21.0009 24.0773 21.188C21.9413 22.1213 19.0853 22.6667 16 22.6667C12.9147 22.6667 10.0587 22.1227 7.92267 21.188C7.49021 21.0009 7.07062 20.7853 6.66667 20.5427V23.3333C6.66667 23.536 6.75467 23.8347 7.13067 24.2227C7.512 24.6173 8.128 25.0333 8.992 25.412C10.7173 26.1667 13.1933 26.6667 16 26.6667C18.8067 26.6667 21.2827 26.1667 23.008 25.412C23.872 25.0333 24.488 24.6173 24.8693 24.2227C25.2453 23.836 25.3333 23.536 25.3333 23.3333V20.5427ZM25.3333 13.876C24.9294 14.1186 24.5098 14.3342 24.0773 14.5213C21.9413 15.4547 19.0853 16 16 16C12.9147 16 10.0587 15.456 7.92267 14.5213C7.49021 14.3342 7.07062 14.1186 6.66667 13.876V16.6667C6.66667 16.8693 6.75467 17.168 7.13067 17.556C7.512 17.9507 8.128 18.3667 8.992 18.7453C10.7173 19.5 13.1933 20 16 20C18.8067 20 21.2827 19.5 23.008 18.7453C23.872 18.3667 24.488 17.9507 24.8693 17.556C25.2453 17.1693 25.3333 16.8693 25.3333 16.6667V13.876ZM16 6.66667C13.1933 6.66667 10.7173 7.16667 8.992 7.92133C8.128 8.3 7.512 8.716 7.13067 9.11067C6.75467 9.49733 6.66667 9.79733 6.66667 10C6.66667 10.2027 6.75467 10.5013 7.13067 10.8893C7.512 11.284 8.128 11.7 8.992 12.0787C10.7173 12.8333 13.1933 13.3333 16 13.3333C18.8067 13.3333 21.2827 12.8333 23.008 12.0787C23.872 11.7 24.488 11.284 24.8693 10.8893C25.2453 10.5027 25.3333 10.2027 25.3333 10C25.3333 9.79733 25.2453 9.49867 24.8693 9.11067C24.488 8.716 23.872 8.3 23.008 7.92133C21.2827 7.16667 18.8067 6.66667 16 6.66667Z" fill="#91D200"/>
</svg>