<svg xmlns="http://www.w3.org/2000/svg" width="24" height="24" viewBox="0 0 24 24" fill="none">
  <path d="M6.75 19.685C8.24602 20.8633 10.0957 21.5028 12 21.5C13.9815 21.5 15.805 20.822 17.25 19.685M9.5 4.87354C6.0255 5.94104 3.5 9.17554 3.5 13C3.5 13.9625 3.66 14.8875 3.955 15.75M14.5 4.87354C17.9745 5.94104 20.5 9.17554 20.5 13C20.5 13.9625 20.34 14.8875 20.045 15.75" stroke="#91D200" stroke-width="2"/>
  <path d="M21.5 17.9999C21.5 18.6709 21.236 19.2799 20.806 19.7289C20.4044 20.1485 19.8694 20.4151 19.2926 20.4831C18.7159 20.551 18.1335 20.4161 17.6454 20.1015C17.1573 19.7868 16.794 19.3121 16.6178 18.7587C16.4416 18.2053 16.4636 17.6079 16.6799 17.069C16.8962 16.5301 17.2934 16.0833 17.8033 15.8053C18.3132 15.5273 18.9039 15.4355 19.4741 15.5456C20.0443 15.6557 20.5583 15.9609 20.928 16.4088C21.2977 16.8566 21.4999 17.4192 21.5 17.9999ZM7.5 17.9999C7.5 18.6709 7.236 19.2799 6.806 19.7289C6.40445 20.1485 5.86937 20.4151 5.29264 20.4831C4.71591 20.551 4.13351 20.4161 3.64542 20.1015C3.15733 19.7868 2.79401 19.3121 2.61783 18.7587C2.44165 18.2053 2.4636 17.6079 2.67992 17.069C2.89624 16.5301 3.29343 16.0833 3.8033 15.8053C4.31316 15.5273 4.9039 15.4355 5.47408 15.5456C6.04427 15.6557 6.55833 15.9609 6.92801 16.4088C7.29769 16.8566 7.49993 17.4192 7.5 17.9999ZM14.5 4.49994C14.5 5.17094 14.236 5.77994 13.806 6.22894C13.4044 6.64845 12.8694 6.91508 12.2926 6.98306C11.7159 7.05104 11.1335 6.91612 10.6454 6.60146C10.1573 6.28681 9.79401 5.81205 9.61783 5.2587C9.44165 4.70535 9.4636 4.10792 9.67992 3.569C9.89624 3.03007 10.2934 2.58326 10.8033 2.30528C11.3132 2.0273 11.9039 1.93549 12.4741 2.04561C13.0443 2.15574 13.5583 2.46092 13.928 2.90878C14.2977 3.35663 14.4999 3.91922 14.5 4.49994Z" fill="#91D200" stroke="#91D200" stroke-width="2" stroke-linecap="round" stroke-linejoin="round"/>
</svg>