<svg xmlns="http://www.w3.org/2000/svg" width="32" height="32" viewBox="0 0 32 32" fill="none">
  <g clip-path="url(#clip0_27_7433)">
    <path d="M20.8268 14.96C20.6606 14.7914 20.4343 14.6958 20.1976 14.6941C19.9609 14.6924 19.7332 14.7849 19.5646 14.9511C19.3961 15.1173 19.3004 15.3436 19.2988 15.5804C19.2971 15.8171 19.3895 16.0447 19.5557 16.2133L22.8624 19.5555H6.96018C6.72443 19.5555 6.49834 19.6492 6.33164 19.8159C6.16494 19.9826 6.07129 20.2087 6.07129 20.4444C6.07129 20.6802 6.16494 20.9063 6.33164 21.073C6.49834 21.2397 6.72443 21.3333 6.96018 21.3333H22.8624L19.5557 24.6222C19.4734 24.7051 19.4083 24.8034 19.364 24.9114C19.3196 25.0195 19.297 25.1352 19.2975 25.252C19.2979 25.3688 19.3213 25.4844 19.3664 25.5921C19.4114 25.6999 19.4773 25.7977 19.5602 25.88C19.6431 25.9623 19.7413 26.0274 19.8494 26.0717C19.9575 26.1161 20.0732 26.1387 20.19 26.1382C20.3068 26.1378 20.4224 26.1144 20.5301 26.0693C20.6378 26.0243 20.7357 25.9584 20.818 25.8755L26.2491 20.4444L20.8268 14.96Z" fill="white"/>
    <path d="M11.7688 16.4C11.9453 16.401 12.1182 16.3495 12.2653 16.2519C12.4124 16.1543 12.5272 16.015 12.5949 15.852C12.6626 15.6889 12.6802 15.5094 12.6455 15.3363C12.6107 15.1632 12.5252 15.0043 12.3999 14.88L9.1021 11.5556H24.9954C25.2312 11.5556 25.4573 11.4619 25.624 11.2952C25.7907 11.1285 25.8843 10.9024 25.8843 10.6667C25.8843 10.4309 25.7907 10.2048 25.624 10.0381C25.4573 9.87143 25.2312 9.77778 24.9954 9.77778H9.1021L12.3999 6.46222C12.4822 6.37934 12.5473 6.28107 12.5917 6.173C12.636 6.06494 12.6586 5.94921 12.6581 5.83241C12.6577 5.71562 12.6343 5.60005 12.5892 5.4923C12.5442 5.38455 12.4783 5.28674 12.3954 5.20444C12.3126 5.12215 12.2143 5.05698 12.1062 5.01267C11.9982 4.96836 11.8824 4.94576 11.7656 4.94617C11.5297 4.94701 11.3039 5.04151 11.1377 5.20889L5.70654 10.6667L11.1377 16.1244C11.2192 16.21 11.3171 16.2785 11.4254 16.3258C11.5338 16.3731 11.6505 16.3984 11.7688 16.4Z" fill="white"/>
  </g>
  <defs>
    <clipPath id="clip0_27_7433">
      <rect width="32" height="32" fill="white"/>
    </clipPath>
  </defs>
</svg>