<svg xmlns="http://www.w3.org/2000/svg" width="48" height="48" viewBox="0 0 48 48" fill="none">
  <path fill-rule="evenodd" clip-rule="evenodd" d="M14.2916 13.932C12.7612 15.4403 11.5916 17.275 10.8701 19.299C10.1486 21.3229 9.89398 23.4838 10.1252 25.62C10.1921 26.2534 10.0046 26.8873 9.604 27.3824C9.20342 27.8775 8.62258 28.1932 7.98924 28.26C7.3559 28.3269 6.72196 28.1394 6.22686 27.7388C5.73176 27.3382 5.41607 26.7574 5.34924 26.124C5.04271 23.2705 5.38469 20.3845 6.34965 17.6816C7.31462 14.9787 8.87764 12.5287 10.922 10.5144C18.4484 3.09365 30.578 3.21845 38.0156 10.7592C45.4532 18.3 45.41 30.4344 37.886 37.8552C34.4032 41.2975 29.7263 43.2629 24.83 43.3416C22.9796 43.3749 21.1341 43.1405 19.3508 42.6456C19.0401 42.5681 18.7479 42.4292 18.4917 42.237C18.2354 42.0448 18.0203 41.8033 17.8588 41.5267C17.6974 41.25 17.5929 40.9439 17.5517 40.6262C17.5104 40.3086 17.5331 39.9859 17.6185 39.6772C17.7039 39.3685 17.8502 39.08 18.0489 38.8287C18.2475 38.5774 18.4944 38.3684 18.7751 38.2141C19.0557 38.0597 19.3644 37.9631 19.683 37.9299C20.0016 37.8967 20.3236 37.9276 20.63 38.0208C21.9689 38.392 23.3545 38.5674 24.7436 38.5416C28.4078 38.4849 31.9084 37.0145 34.514 34.4376C40.1372 28.8936 40.19 19.8 34.598 14.1312C29.006 8.46245 19.9124 8.38805 14.2916 13.932Z" fill="#E54240"/>
  <path fill-rule="evenodd" clip-rule="evenodd" d="M9.5203 28.0679C9.31073 28.3034 9.05683 28.4953 8.7731 28.6326C8.48937 28.7699 8.18136 28.85 7.86667 28.8683C7.55198 28.8866 7.23677 28.8427 6.93905 28.7391C6.64133 28.6356 6.36692 28.4744 6.1315 28.2647L2.0035 24.5927C1.52802 24.1695 1.24017 23.5746 1.20326 22.9391C1.16635 22.3036 1.38342 21.6794 1.8067 21.2039C2.22999 20.7285 2.82482 20.4406 3.46034 20.4037C4.09587 20.3668 4.72002 20.5839 5.1955 21.0071L9.3235 24.6791C9.55897 24.8887 9.75085 25.1426 9.88817 25.4263C10.0255 25.7101 10.1056 26.0181 10.1239 26.3328C10.1421 26.6475 10.0982 26.9627 9.99468 27.2604C9.89112 27.5581 9.72993 27.8325 9.5203 28.0679Z" fill="#E54240"/>
  <path fill-rule="evenodd" clip-rule="evenodd" d="M5.80813 27.8401C5.99723 28.0923 6.23414 28.3047 6.50534 28.4653C6.77654 28.6259 7.07671 28.7315 7.38871 28.776C7.70072 28.8206 8.01845 28.8033 8.32376 28.7251C8.62907 28.6468 8.91599 28.5093 9.16812 28.3201L13.9681 24.7201C14.4773 24.3382 14.814 23.7697 14.904 23.1396C14.994 22.5094 14.83 21.8694 14.4481 21.3601C14.0662 20.8509 13.4977 20.5143 12.8675 20.4243C12.2374 20.3343 11.5973 20.4982 11.0881 20.8801L6.28812 24.4801C6.03599 24.6692 5.82356 24.9062 5.66299 25.1774C5.50241 25.4486 5.39682 25.7487 5.35225 26.0607C5.30767 26.3727 5.32499 26.6905 5.40321 26.9958C5.48143 27.3011 5.61902 27.588 5.80813 27.8401ZM24.0001 14.4001C24.6366 14.4001 25.2471 14.653 25.6972 15.1031C26.1473 15.5532 26.4001 16.1636 26.4001 16.8001V25.2001C26.4001 25.8367 26.1473 26.4471 25.6972 26.8972C25.2471 27.3473 24.6366 27.6001 24.0001 27.6001C23.3636 27.6001 22.7532 27.3473 22.3031 26.8972C21.853 26.4471 21.6001 25.8367 21.6001 25.2001V16.8001C21.6001 16.1636 21.853 15.5532 22.3031 15.1031C22.7532 14.653 23.3636 14.4001 24.0001 14.4001Z" fill="#E54240"/>
  <path fill-rule="evenodd" clip-rule="evenodd" d="M33.5996 25.2C33.5996 25.8366 33.3468 26.447 32.8967 26.8971C32.4466 27.3472 31.8361 27.6 31.1996 27.6H23.9996C23.3631 27.6 22.7526 27.3472 22.3026 26.8971C21.8525 26.447 21.5996 25.8366 21.5996 25.2C21.5996 24.5635 21.8525 23.9531 22.3026 23.503C22.7526 23.0529 23.3631 22.8 23.9996 22.8H31.1996C31.8361 22.8 32.4466 23.0529 32.8967 23.503C33.3468 23.9531 33.5996 24.5635 33.5996 25.2Z" fill="#E54240"/>
</svg>