<svg xmlns="http://www.w3.org/2000/svg" width="24" height="24" viewBox="0 0 24 24" fill="none">
  <path d="M12 8V12L15 15M3.223 14C3.59948 15.6518 4.43453 17.1638 5.63212 18.3621C6.82971 19.5604 8.3412 20.3963 9.99276 20.7738C11.6443 21.1512 13.3689 21.0549 14.9681 20.4958C16.5674 19.9367 17.9763 18.9375 19.033 17.6133C20.0896 16.289 20.751 14.6934 20.9411 13.01C21.1312 11.3265 20.8423 9.6236 20.1076 8.09704C19.373 6.57049 18.2223 5.28229 16.7881 4.38061C15.3538 3.47893 13.6941 3.00038 12 3C10.2299 2.99952 8.49889 3.52105 7.02364 4.49933C5.54839 5.47761 4.39439 6.8692 3.706 8.5M7 9H3V5" stroke="#91D200" stroke-width="2" stroke-linecap="round" stroke-linejoin="round"/>
</svg>