<svg xmlns="http://www.w3.org/2000/svg" width="20" height="20" viewBox="0 0 20 20" fill="none">
  <path d="M9.98382 5.99189C8.8856 5.99189 7.94546 6.38302 7.16339 7.1653C6.38132 7.94757 5.99029 8.88796 5.99029 9.98648C5.99029 10.7355 6.17765 11.4262 6.55238 12.0587C6.92711 12.6911 7.44693 13.1821 8.11185 13.5317C8.37809 13.6648 8.56545 13.8602 8.67394 14.1179C8.78243 14.3755 8.77811 14.6378 8.66096 14.9048C8.54448 15.1378 8.36977 15.3126 8.13681 15.4291C7.90386 15.5456 7.6709 15.5456 7.43794 15.4291C6.38964 14.9298 5.55367 14.1891 4.93001 13.2071C4.30635 12.2251 3.99419 11.1516 3.99353 9.98648C3.99353 8.32206 4.57592 6.90731 5.7407 5.74222C6.90547 4.57714 8.31985 3.99459 9.98382 3.99459C11.1652 3.99459 12.2511 4.30683 13.2415 4.93132C14.2319 5.55581 14.9681 6.40866 15.45 7.48986C15.5498 7.72288 15.5458 7.95589 15.438 8.18891C15.3302 8.42193 15.1594 8.58837 14.9258 8.68823C14.6596 8.80474 14.3933 8.80474 14.1271 8.68823C13.8609 8.57173 13.6612 8.38032 13.5281 8.11401C13.1786 7.44825 12.6878 6.92828 12.0555 6.55412C11.4232 6.17996 10.7326 5.99255 9.98382 5.99189ZM9.98382 1.9973C7.7541 1.9973 5.86549 2.77125 4.318 4.31915C2.77051 5.86705 1.99676 7.75616 1.99676 9.98648C1.99676 12.0836 2.68731 13.8812 4.06841 15.3792C5.4495 16.8771 7.18003 17.726 9.25999 17.9257C9.54287 17.959 9.78813 18.0838 9.9958 18.3002C10.2035 18.5166 10.2993 18.7663 10.2833 19.0492C10.2674 19.3322 10.1632 19.5652 9.97084 19.7483C9.77848 19.9313 9.54153 20.0146 9.25999 19.9979C7.96209 19.9147 6.75139 19.5901 5.62788 19.0242C4.50437 18.4583 3.52262 17.7217 2.68265 16.8142C1.84268 15.9068 1.18541 14.8665 0.710849 13.6935C0.236285 12.5204 -0.000664189 11.2847 1.39829e-06 9.98648C1.39829e-06 8.60501 0.262243 7.30677 0.786726 6.09175C1.31121 4.87673 2.02239 3.81983 2.92027 2.92104C3.81815 2.02226 4.87477 1.31089 6.09013 0.786934C7.30549 0.262977 8.60339 0.000665765 9.98382 0C12.5962 0 14.8719 0.890461 16.8108 2.67138C18.7496 4.4523 19.8102 6.64933 19.9926 9.26246C20.0259 9.52876 19.947 9.75779 19.756 9.94953C19.565 10.1413 19.3277 10.2451 19.0441 10.2611C18.7606 10.2771 18.507 10.1855 18.2834 9.98648C18.0597 9.78741 17.9306 9.54607 17.896 9.26246C17.6464 7.26516 16.7771 5.55514 15.2882 4.1324C13.7993 2.70966 12.0312 1.99796 9.98382 1.9973ZM17.5216 19.4736L14.2269 16.2031L13.4782 18.475C13.395 18.708 13.2369 18.8205 13.0039 18.8125C12.771 18.8045 12.6129 18.6837 12.5297 18.45L10.2584 10.8853C10.1918 10.7022 10.2334 10.5357 10.3832 10.3859C10.5329 10.2361 10.6993 10.1945 10.8824 10.2611L18.4451 12.533C18.6781 12.6162 18.7989 12.7744 18.8075 13.0074C18.8162 13.2404 18.7037 13.3985 18.4701 13.4817L16.1987 14.2307L19.4934 17.5263C19.7763 17.8092 19.9177 18.1338 19.9177 18.4999C19.9177 18.8661 19.7763 19.1907 19.4934 19.4736C19.2105 19.7566 18.8821 19.8981 18.508 19.8981C18.1339 19.8981 17.8051 19.7566 17.5216 19.4736Z" fill="#051725"/>
</svg>