<svg xmlns="http://www.w3.org/2000/svg" width="32" height="32" viewBox="0 0 32 32" fill="none">
  <path d="M9.33398 10.6667L14.8287 16.1614C15.2003 16.5329 15.495 16.974 15.6961 17.4595C15.8972 17.9449 16.0007 18.4653 16.0007 18.9907V21.3334M9.33398 10.6667H13.334M9.33398 10.6667V14.6667" stroke="#91D200" stroke-width="2" stroke-linecap="round"/>
  <path d="M22.6667 10.6667L17.172 16.1614C16.8004 16.5329 16.5056 16.974 16.3045 17.4595C16.1034 17.9449 15.9999 18.4653 16 18.9907V21.3334M22.6667 10.6667H18.6667M22.6667 10.6667V14.6667" stroke="#91D200" stroke-width="2" stroke-linecap="round"/>
  <path d="M4 10.4C4 8.16 4 7.04 4.436 6.184C4.81949 5.43139 5.43139 4.81949 6.184 4.436C7.04 4 8.16 4 10.4 4H21.6C23.84 4 24.96 4 25.816 4.436C26.5686 4.81949 27.1805 5.43139 27.564 6.184C28 7.04 28 8.16 28 10.4V21.6C28 23.84 28 24.96 27.564 25.816C27.1805 26.5686 26.5686 27.1805 25.816 27.564C24.96 28 23.84 28 21.6 28H10.4C8.16 28 7.04 28 6.184 27.564C5.43139 27.1805 4.81949 26.5686 4.436 25.816C4 24.96 4 23.84 4 21.6V10.4Z" stroke="#91D200" stroke-width="2" stroke-linecap="round"/>
</svg>