<svg xmlns="http://www.w3.org/2000/svg" width="24" height="24" viewBox="0 0 24 24" fill="none">
  <path fill-rule="evenodd" clip-rule="evenodd" d="M10.7985 3H13.2C13.2796 3 13.3559 3.03161 13.4122 3.08787C13.4684 3.14413 13.5 3.22044 13.5 3.3C13.5 6.012 16.437 7.7085 18.786 6.351C18.8546 6.31223 18.9357 6.30199 19.0117 6.32248C19.0878 6.34296 19.1527 6.39254 19.1925 6.4605L20.3955 8.5425C20.4348 8.6112 20.4453 8.69263 20.4248 8.76904C20.4043 8.84546 20.3544 8.91067 20.286 8.9505C17.937 10.3065 17.937 13.6965 20.286 15.054C20.354 15.0938 20.4036 15.1588 20.4241 15.2348C20.4445 15.3109 20.4343 15.3919 20.3955 15.4605L19.1925 17.5425C19.1527 17.6105 19.0878 17.66 19.0117 17.6805C18.9357 17.701 18.8546 17.6908 18.786 17.652C16.437 16.2945 13.5 17.9895 13.5 20.7C13.5 20.7793 13.4686 20.8554 13.4127 20.9116C13.3568 20.9678 13.2808 20.9996 13.2015 21H10.8C10.7205 21 10.6442 20.9684 10.5879 20.9121C10.5316 20.8559 10.5 20.7796 10.5 20.7C10.5 17.988 7.56304 16.293 5.21404 17.649C5.14533 17.6882 5.06391 17.6987 4.9875 17.6782C4.91108 17.6577 4.84586 17.6079 4.80604 17.5395L3.60604 15.4575C3.56714 15.3891 3.55667 15.3082 3.57687 15.2322C3.59707 15.1561 3.64633 15.0911 3.71404 15.051C6.06304 13.6935 6.06304 10.3035 3.71404 8.946C3.64648 8.9062 3.59719 8.84152 3.57672 8.76582C3.55625 8.69013 3.56624 8.60943 3.60454 8.541L4.80604 6.4575C4.84611 6.38939 4.91144 6.33984 4.98784 6.31962C5.06423 6.2994 5.14552 6.31014 5.21404 6.3495C7.56304 7.707 10.5 6.0105 10.5 3.2985C10.5 3.1335 10.6335 3 10.7985 3ZM8.25004 3.3C8.25004 1.89 9.39004 0.75 10.7985 0.75H13.2C14.61 0.75 15.75 1.89 15.75 3.3C15.7505 3.52345 15.8096 3.74285 15.9216 3.93623C16.0335 4.12961 16.1943 4.29018 16.3879 4.40184C16.5814 4.5135 16.8009 4.57234 17.0244 4.57245C17.2478 4.57257 17.4674 4.51396 17.661 4.4025C18.2464 4.06539 18.9416 3.97429 19.594 4.14921C20.2465 4.32414 20.8028 4.75078 21.141 5.3355L22.344 7.4175C23.0475 8.637 22.629 10.194 21.411 10.8975C21.2173 11.0094 21.0564 11.1704 20.9446 11.3642C20.8327 11.5579 20.7739 11.7778 20.7739 12.0015C20.7739 12.2252 20.8327 12.4451 20.9446 12.6388C21.0564 12.8326 21.2173 12.9936 21.411 13.1055C21.9958 13.4437 22.4224 14.0001 22.5973 14.6525C22.7722 15.305 22.6812 16.0002 22.344 16.5855L21.141 18.6675C20.8028 19.2522 20.2465 19.6789 19.594 19.8538C18.9416 20.0287 18.2464 19.9376 17.661 19.6005C17.4674 19.489 17.2478 19.4304 17.0244 19.4305C16.8009 19.4307 16.5814 19.4895 16.3879 19.6012C16.1943 19.7128 16.0335 19.8734 15.9216 20.0668C15.8096 20.2601 15.7505 20.4796 15.75 20.703C15.75 22.1115 14.61 23.253 13.2015 23.253H10.8C10.124 23.2526 9.47578 22.9838 8.99788 22.5056C8.51999 22.0274 8.25154 21.379 8.25154 20.703C8.25109 20.4796 8.19193 20.2601 8.07998 20.0668C7.96804 19.8734 7.80723 19.7128 7.61369 19.6012C7.42014 19.4895 7.20065 19.4307 6.9772 19.4305C6.75375 19.4304 6.5342 19.489 6.34054 19.6005C5.75519 19.9376 5.06 20.0287 4.40756 19.8538C3.75512 19.6789 3.19874 19.2522 2.86054 18.6675L1.65754 16.5855C1.32042 16.0002 1.22933 15.305 1.40425 14.6525C1.57917 14.0001 2.00582 13.4437 2.59054 13.1055C2.78393 12.9935 2.94447 12.8326 3.05607 12.6389C3.16768 12.4453 3.22643 12.2257 3.22643 12.0023C3.22643 11.7788 3.16768 11.5592 3.05607 11.3656C2.94447 11.1719 2.78393 11.011 2.59054 10.899C2.00582 10.5608 1.57917 10.0044 1.40425 9.35198C1.22933 8.69954 1.32042 8.00435 1.65754 7.419L2.85904 5.3355C3.19724 4.75078 3.75362 4.32414 4.40606 4.14921C5.0585 3.97429 5.75369 4.06539 6.33904 4.4025C6.5327 4.51396 6.75225 4.57257 6.9757 4.57245C7.19915 4.57234 7.41864 4.5135 7.61219 4.40184C7.80573 4.29018 7.96654 4.12961 8.07848 3.93623C8.19043 3.74285 8.24959 3.52345 8.25004 3.3ZM14.25 12C14.25 12.5967 14.013 13.169 13.591 13.591C13.1691 14.0129 12.5968 14.25 12 14.25C11.4033 14.25 10.831 14.0129 10.409 13.591C9.98709 13.169 9.75004 12.5967 9.75004 12C9.75004 11.4033 9.98709 10.831 10.409 10.409C10.831 9.98705 11.4033 9.75 12 9.75C12.5968 9.75 13.1691 9.98705 13.591 10.409C14.013 10.831 14.25 11.4033 14.25 12ZM16.5 12C16.5 13.1935 16.0259 14.3381 15.182 15.182C14.3381 16.0259 13.1935 16.5 12 16.5C10.8066 16.5 9.66197 16.0259 8.81806 15.182C7.97414 14.3381 7.50004 13.1935 7.50004 12C7.50004 10.8065 7.97414 9.66193 8.81806 8.81802C9.66197 7.97411 10.8066 7.5 12 7.5C13.1935 7.5 14.3381 7.97411 15.182 8.81802C16.0259 9.66193 16.5 10.8065 16.5 12Z" fill="#91D200"/>
</svg>