<svg xmlns="http://www.w3.org/2000/svg" width="24" height="24" viewBox="0 0 24 24" fill="none">
  <path d="M5.09323 6.13008H3.11107C2.8164 6.13008 2.53379 6.01556 2.32543 5.81171C2.11706 5.60786 2 5.33138 2 5.04309C2 4.75481 2.11706 4.47833 2.32543 4.27448C2.53379 4.07063 2.8164 3.95611 3.11107 3.95611H5.09323C5.31847 3.3806 5.71689 2.88551 6.23586 2.53625C6.75483 2.18699 7.3699 2 7.9998 2C8.6297 2 9.24478 2.18699 9.76375 2.53625C10.2827 2.88551 10.6811 3.3806 10.9064 3.95611H16.8884C19.4657 3.95611 21.5549 6.00008 21.5549 8.52145C21.5549 10.8085 19.8359 12.7029 17.5928 13.0351C17.3767 13.619 16.9833 14.1243 16.4652 14.4832C15.9472 14.8422 15.3294 15.0375 14.6946 15.0432C14.0599 15.0488 13.4385 14.8644 12.9139 14.5147C12.3893 14.165 11.9866 13.6668 11.7597 13.0868H7.11094C6.51892 13.0861 5.94674 13.2956 5.50069 13.6764C5.05463 14.0573 4.76501 14.5835 4.68562 15.1575C4.60623 15.7314 4.74247 16.3141 5.06902 16.7972C5.39558 17.2803 5.89026 17.6311 6.46119 17.7843C6.70077 17.2227 7.1069 16.7442 7.62716 16.4106C8.14742 16.077 8.75794 15.9036 9.37992 15.9128C10.0019 15.922 10.6068 16.1133 11.1165 16.4621C11.6263 16.8109 12.0175 17.3011 12.2397 17.8695H17.1551C17.2017 17.5413 17.2697 17.2208 17.3595 16.916C17.4066 16.7561 17.4906 16.6089 17.6051 16.4857C17.7195 16.3626 17.8614 16.2668 18.0197 16.2057C18.1779 16.1447 18.3484 16.12 18.518 16.1337C18.6876 16.1473 18.8517 16.1988 18.9977 16.2843L19.0043 16.2886L19.0208 16.2982L19.0439 16.3121L19.0803 16.3338C19.3872 16.5177 19.6903 16.7078 19.9892 16.9039C20.5114 17.2469 21.206 17.7317 21.6731 18.1865C21.7767 18.2875 21.8589 18.4075 21.915 18.5396C21.9711 18.6718 22 18.8134 22 18.9565C22 19.0996 21.9711 19.2413 21.915 19.3734C21.8589 19.5055 21.7767 19.6256 21.6731 19.7265C21.206 20.1813 20.5114 20.6661 19.9892 21.0092C19.6709 21.218 19.3481 21.4199 19.0208 21.6148L19.0043 21.6244L18.9977 21.6288C18.8516 21.714 18.6876 21.7653 18.5181 21.7788C18.3487 21.7922 18.1783 21.7675 18.0202 21.7065C17.862 21.6455 17.7202 21.5498 17.6058 21.4268C17.4913 21.3038 17.4072 21.1568 17.3599 20.997C17.2684 20.6844 17.1999 20.3657 17.1551 20.0435H12.2397C12.0128 20.6235 11.61 21.1218 11.0854 21.4714C10.5608 21.8211 9.93948 22.0055 9.30472 21.9999C8.66996 21.9942 8.05214 21.7989 7.53411 21.4399C7.01609 21.081 6.62264 20.5757 6.40652 19.9918C4.16348 19.6596 2.44443 17.7656 2.44443 15.4782C2.44443 12.9568 4.53369 10.9128 7.11094 10.9128H11.7597C11.982 10.3446 12.3733 9.85451 12.883 9.50587C13.3927 9.15722 13.9976 8.96598 14.6194 8.95681C15.2413 8.94764 15.8517 9.12096 16.372 9.45441C16.8922 9.78786 17.2984 10.2662 17.5382 10.8276C18.1091 10.6744 18.6038 10.3236 18.9303 9.84049C19.2569 9.35738 19.3931 8.77473 19.3137 8.20077C19.2343 7.62681 18.9447 7.10054 18.4987 6.71971C18.0526 6.33887 17.4804 6.12936 16.8884 6.13008H10.9064C10.6811 6.70558 10.2827 7.20068 9.76375 7.54994C9.24478 7.8992 8.6297 8.08619 7.9998 8.08619C7.3699 8.08619 6.75483 7.8992 6.23586 7.54994C5.71689 7.20068 5.31847 6.70558 5.09323 6.13008Z" fill="#91D200"/>
</svg>