<svg xmlns="http://www.w3.org/2000/svg" width="24" height="24" viewBox="0 0 24 24" fill="none">
  <path d="M21.4258 6.62C21.3243 6.37565 21.1301 6.18147 20.8858 6.08C20.7656 6.02876 20.6365 6.00158 20.5058 6H15.5058C15.2406 6 14.9862 6.10536 14.7987 6.29289C14.6112 6.48043 14.5058 6.73478 14.5058 7C14.5058 7.26522 14.6112 7.51957 14.7987 7.70711C14.9862 7.89464 15.2406 8 15.5058 8H18.0958L12.5058 13.59L9.2158 10.29C9.12284 10.1963 9.01223 10.1219 8.89038 10.0711C8.76852 10.0203 8.63781 9.9942 8.5058 9.9942C8.37379 9.9942 8.24308 10.0203 8.12122 10.0711C7.99936 10.1219 7.88876 10.1963 7.7958 10.29L1.7958 16.29C1.70207 16.383 1.62768 16.4936 1.57691 16.6154C1.52614 16.7373 1.5 16.868 1.5 17C1.5 17.132 1.52614 17.2627 1.57691 17.3846C1.62768 17.5064 1.70207 17.617 1.7958 17.71C1.88876 17.8037 1.99936 17.8781 2.12122 17.9289C2.24308 17.9797 2.37379 18.0058 2.5058 18.0058C2.63781 18.0058 2.76852 17.9797 2.89037 17.9289C3.01223 17.8781 3.12284 17.8037 3.2158 17.71L8.5058 12.41L11.7958 15.71C11.8888 15.8037 11.9994 15.8781 12.1212 15.9289C12.2431 15.9797 12.3738 16.0058 12.5058 16.0058C12.6378 16.0058 12.7685 15.9797 12.8904 15.9289C13.0122 15.8781 13.1228 15.8037 13.2158 15.71L19.5058 9.41V12C19.5058 12.2652 19.6112 12.5196 19.7987 12.7071C19.9862 12.8946 20.2406 13 20.5058 13C20.771 13 21.0254 12.8946 21.2129 12.7071C21.4004 12.5196 21.5058 12.2652 21.5058 12V7C21.5042 6.86932 21.477 6.74022 21.4258 6.62Z" fill="#051725"/>
</svg>