<svg xmlns="http://www.w3.org/2000/svg" width="16" height="16" viewBox="0 0 16 16" fill="none">
  <path d="M14.6135 4.41333C14.5458 4.25043 14.4164 4.12098 14.2535 4.05333C14.1733 4.01917 14.0872 4.00105 14.0001 4H10.6668C10.49 4 10.3204 4.07024 10.1954 4.19526C10.0704 4.32029 10.0001 4.48986 10.0001 4.66667C10.0001 4.84348 10.0704 5.01305 10.1954 5.13807C10.3204 5.2631 10.49 5.33333 10.6668 5.33333H12.3935L8.66679 9.06L6.47346 6.86C6.41148 6.79751 6.33775 6.74792 6.25651 6.71407C6.17527 6.68023 6.08813 6.6628 6.00012 6.6628C5.91211 6.6628 5.82498 6.68023 5.74374 6.71407C5.6625 6.74792 5.58876 6.79751 5.52679 6.86L1.52679 10.86C1.4643 10.922 1.41471 10.9957 1.38086 11.0769C1.34702 11.1582 1.32959 11.2453 1.32959 11.3333C1.32959 11.4213 1.34702 11.5085 1.38086 11.5897C1.41471 11.671 1.4643 11.7447 1.52679 11.8067C1.58876 11.8692 1.6625 11.9187 1.74374 11.9526C1.82498 11.9864 1.91211 12.0039 2.00012 12.0039C2.08813 12.0039 2.17527 11.9864 2.25651 11.9526C2.33775 11.9187 2.41148 11.8692 2.47346 11.8067L6.00012 8.27333L8.19346 10.4733C8.25543 10.5358 8.32916 10.5854 8.4104 10.6193C8.49164 10.6531 8.57878 10.6705 8.66679 10.6705C8.7548 10.6705 8.84193 10.6531 8.92317 10.6193C9.00441 10.5854 9.07815 10.5358 9.14012 10.4733L13.3335 6.27333V8C13.3335 8.17681 13.4037 8.34638 13.5287 8.4714C13.6537 8.59643 13.8233 8.66667 14.0001 8.66667C14.1769 8.66667 14.3465 8.59643 14.4715 8.4714C14.5966 8.34638 14.6668 8.17681 14.6668 8V4.66667C14.6657 4.57955 14.6476 4.49348 14.6135 4.41333Z" fill="#91D200"/>
</svg>