<svg width="210" height="40" viewBox="0 0 210 40" fill="none" xmlns="http://www.w3.org/2000/svg">
<path d="M20.2628 2.14112L22.4039 0L29.6626 7.31397L22.6416 11.7234L18.1535 8.90433L16.1831 11.2413L22.6416 15.2976L31.633 9.64928L37.4587 16.5581L22.6416 25.8592L10.3591 18.1485L8.39204 20.4805L22.6416 29.4283L39.4223 18.8867L45.2548 25.804L22.6416 40L0 25.7856L1.93521 23.5021L1.98543 23.5323H1.9871L22.6416 36.5012L40.79 25.1059L38.8197 22.7689L22.6416 32.9271L3.92733 21.1802L9.7564 14.2663L22.6416 22.3604L32.994 15.86L31.0286 13.5298L22.6416 18.7963L11.7201 11.9377L17.5508 5.02385L22.6416 8.22466L25.2012 6.61756L20.2628 2.14112Z" fill="#6A6A6A"/>
<path d="M206.059 7.30762C207.821 7.30762 209.233 8.72889 209.233 10.5017C209.233 12.2427 207.805 13.6557 206.048 13.654C204.292 13.654 202.883 12.2294 202.885 10.4565C202.886 8.7222 204.312 7.30762 206.059 7.30762ZM208.576 10.4867C208.581 9.10221 207.455 7.96887 206.065 7.96217C204.679 7.95548 203.546 9.0838 203.539 10.4766C203.532 11.8611 204.662 12.9911 206.059 12.9977C207.435 13.0044 208.571 11.8694 208.575 10.4867H208.576Z" fill="#6A6A6A"/>
<path d="M205.39 10.7689V12.0412H204.828V8.91741C204.853 8.91741 204.878 8.91406 204.903 8.91406C205.338 8.91406 205.775 8.91406 206.211 8.91406C206.398 8.91406 206.584 8.93248 206.76 9.00614C207.103 9.1501 207.267 9.4213 207.285 9.7829C207.305 10.1997 207.135 10.4709 206.753 10.6501C206.745 10.6534 206.738 10.6584 206.723 10.6668C206.904 11.1221 207.083 11.5775 207.269 12.0479C207.227 12.0479 207.197 12.0479 207.167 12.0479C207.026 12.0479 206.885 12.0462 206.745 12.0479C206.691 12.0479 206.664 12.0345 206.646 11.9809C206.502 11.5926 206.355 11.2042 206.207 10.8175C206.196 10.789 206.192 10.7572 206.145 10.7572C205.901 10.7606 205.657 10.7589 205.412 10.7606C205.409 10.7606 205.404 10.7639 205.39 10.7689ZM205.395 10.3019C205.41 10.3035 205.422 10.3052 205.434 10.3052C205.67 10.3052 205.904 10.3086 206.139 10.3019C206.229 10.2985 206.323 10.2834 206.41 10.255C206.581 10.1964 206.674 10.0692 206.694 9.89004C206.715 9.6925 206.649 9.53681 206.472 9.43637C206.368 9.37778 206.254 9.36271 206.137 9.36271C205.911 9.36271 205.685 9.36271 205.459 9.36271C205.439 9.36271 205.419 9.36438 205.395 9.36606V10.3019Z" fill="#6A6A6A"/>
<path d="M56.8259 30.5711H51.2546V2.73145H56.8259V30.5727V30.5711Z" fill="#6A6A6A"/>
<path d="M63.8899 30.5694H58.5898V9.77594H59.8705L61.6182 11.7949C62.472 11.0181 63.4396 10.4205 64.521 10.0003C65.6025 9.58007 66.7308 9.36914 67.9093 9.36914C69.1782 9.36914 70.3752 9.61188 71.5018 10.0974C72.6268 10.5828 73.6111 11.2508 74.4532 12.0979C75.2952 12.9449 75.9582 13.936 76.4436 15.0676C76.9291 16.201 77.1719 17.408 77.1719 18.6886V30.5711H71.8718V18.6886C71.8718 18.1446 71.768 17.629 71.5604 17.1452C71.3528 16.6597 71.0683 16.2361 70.705 15.8729C70.3434 15.5113 69.9215 15.2267 69.4427 15.0191C68.964 14.8132 68.4534 14.7077 67.9093 14.7077C67.3652 14.7077 66.8279 14.8115 66.3374 15.0191C65.8452 15.2267 65.4183 15.5113 65.055 15.8729C64.6934 16.2361 64.4072 16.6597 64.2013 17.1452C63.9937 17.6306 63.8899 18.1462 63.8899 18.6886V30.5711V30.5694Z" fill="#6A6A6A"/>
<path d="M84.0454 30.5689H78.7068V1.50391H84.0454V19.8315L91.9469 9.81394H98.0438L91.1517 18.4722L98.0438 30.5689H91.9469L87.7333 23.0173L84.0437 27.9105V30.5706L84.0454 30.5689Z" fill="#6A6A6A"/>
<path d="M110.562 30.5704H98.4472V25.2888H110.562C110.924 25.2888 111.235 25.1599 111.495 24.9021C111.753 24.6426 111.883 24.3329 111.883 23.9696C111.883 23.6063 111.754 23.3485 111.495 23.2314C111.235 23.1142 110.926 23.0556 110.562 23.0556H105.048C104.129 23.0556 103.269 22.8815 102.467 22.5316C101.663 22.1817 100.965 21.7063 100.369 21.1036C99.7731 20.5026 99.3044 19.7995 98.9612 18.9977C98.618 18.1958 98.4456 17.3353 98.4456 16.4162C98.4456 15.4972 98.618 14.635 98.9612 13.8332C99.3044 13.0313 99.7731 12.3332 100.369 11.7373C100.965 11.143 101.663 10.6725 102.467 10.3294C103.269 9.98618 104.129 9.81543 105.048 9.81543H115.784V15.0971H105.048C104.686 15.0971 104.375 15.226 104.116 15.4855C103.856 15.745 103.727 16.0547 103.727 16.4179C103.727 16.7812 103.856 17.1127 104.116 17.3788C104.375 17.6433 104.685 17.7773 105.048 17.7773H110.562C111.468 17.7773 112.322 17.9296 113.125 18.2326C113.927 18.5373 114.627 18.9591 115.223 19.5049C115.817 20.049 116.291 20.7018 116.641 21.4652C116.991 22.2286 117.165 23.0639 117.165 23.9696C117.165 24.8753 116.991 25.7458 116.641 26.5426C116.291 27.3378 115.819 28.0359 115.223 28.6386C114.627 29.2396 113.929 29.7133 113.125 30.0565C112.323 30.3997 111.468 30.5704 110.562 30.5704Z" fill="#6A6A6A"/>
<path d="M123.729 30.5689H118.429V1.50391H123.729V10.6878C124.363 10.209 125.016 9.86919 125.689 9.6683C126.362 9.46741 127.048 9.36697 127.748 9.36697C129.029 9.36697 130.234 9.60971 131.359 10.0952C132.486 10.5807 133.465 11.2486 134.3 12.0957C135.136 12.9428 135.795 13.9338 136.281 15.0655C136.766 16.1988 137.009 17.4058 137.009 18.6865V30.5689H131.669V18.6865H131.707C131.707 18.1424 131.604 17.6268 131.396 17.143C131.188 16.6575 130.904 16.234 130.541 15.8707C130.179 15.5091 129.757 15.2245 129.278 15.0169C128.799 14.811 128.289 14.7055 127.745 14.7055C127.201 14.7055 126.663 14.8093 126.173 15.0169C125.681 15.2245 125.254 15.5091 124.891 15.8707C124.529 16.234 124.243 16.6575 124.037 17.143C123.829 17.6285 123.725 18.1441 123.725 18.6865V30.5689H123.729Z" fill="#6A6A6A"/>
<path d="M159.359 30.5745H158.076L156.017 27.7202C155.513 28.1738 154.979 28.5974 154.415 28.9925C153.853 29.3875 153.26 29.7307 152.639 30.0203C152.018 30.3133 151.38 30.5426 150.727 30.7101C150.074 30.8775 149.41 30.9628 148.738 30.9628C147.275 30.9628 145.901 30.7167 144.612 30.2246C143.323 29.7324 142.198 29.0176 141.234 28.0784C140.269 27.1393 139.508 25.9909 138.952 24.6315C138.394 23.2722 138.116 21.7254 138.116 19.991C138.116 18.3722 138.394 16.889 138.952 15.5347C139.508 14.1821 140.269 13.0203 141.234 12.0493C142.198 11.0783 143.323 10.325 144.612 9.78764C145.899 9.25027 147.274 8.98242 148.738 8.98242C149.411 8.98242 150.078 9.06613 150.737 9.23521C151.397 9.40261 152.038 9.6353 152.659 9.93329C153.28 10.2313 153.873 10.5811 154.435 10.9813C154.998 11.383 155.525 11.8166 156.017 12.282L158.076 9.8161H159.359V30.5711V30.5745ZM154.018 19.9944C154.018 19.2695 153.879 18.5664 153.6 17.8867C153.322 17.2071 152.944 16.6061 152.465 16.0821C151.986 15.5565 151.427 15.1363 150.786 14.8199C150.145 14.5018 149.463 14.3444 148.738 14.3444C148.013 14.3444 147.33 14.4666 146.689 14.7127C146.048 14.9588 145.492 15.3204 145.02 15.8009C144.548 16.2797 144.175 16.8723 143.904 17.577C143.631 18.2835 143.495 19.0887 143.495 19.9944C143.495 20.9001 143.631 21.707 143.904 22.4117C144.175 23.1182 144.548 23.7091 145.02 24.1879C145.492 24.6667 146.048 25.03 146.689 25.2761C147.33 25.5221 148.012 25.6443 148.738 25.6443C149.465 25.6443 150.146 25.4853 150.786 25.1689C151.427 24.8508 151.986 24.4307 152.465 23.9067C152.944 23.3827 153.322 22.78 153.6 22.1004C153.878 21.4207 154.018 20.7193 154.018 19.9944Z" fill="#6A6A6A"/>
<path d="M166.113 38.4953H160.774V9.78011H162.055L164.171 12.2845C164.65 11.8325 165.174 11.4056 165.743 11.0039C166.312 10.6038 166.905 10.2572 167.519 9.96426C168.134 9.67297 168.771 9.44363 169.431 9.27622C170.091 9.10881 170.757 9.02344 171.431 9.02344C172.893 9.02344 174.269 9.28459 175.556 9.81025C176.845 10.3342 177.97 11.0758 178.935 12.0317C179.899 12.991 180.659 14.1461 181.216 15.4987C181.772 16.8513 182.052 18.3496 182.052 19.9936C182.052 21.6375 181.772 23.2396 181.216 24.6039C180.661 25.97 179.899 27.1267 178.935 28.0793C177.97 29.0301 176.845 29.7584 175.556 30.2639C174.269 30.7695 172.893 31.0206 171.431 31.0206C170.966 31.0206 170.502 30.9687 170.042 30.8649C169.583 30.7611 169.13 30.6222 168.683 30.4481C168.236 30.2723 167.797 30.0747 167.363 29.8554C166.93 29.6345 166.511 29.4085 166.111 29.1758V38.4936L166.113 38.4953ZM176.733 19.9936C176.733 19.113 176.594 18.3245 176.316 17.6248C176.037 16.925 175.66 16.3324 175.181 15.8486C174.703 15.3631 174.138 14.9915 173.492 14.7337C172.846 14.4759 172.16 14.3453 171.435 14.3453C170.71 14.3453 170.027 14.4742 169.386 14.7337C168.745 14.9931 168.185 15.3648 167.707 15.8486C167.228 16.3341 166.848 16.9267 166.572 17.6248C166.292 18.3245 166.153 19.113 166.153 19.9936C166.153 20.8741 166.292 21.6057 166.572 22.3038C166.85 23.0018 167.228 23.5978 167.707 24.09C168.185 24.5822 168.745 24.9638 169.386 25.235C170.027 25.5079 170.708 25.6435 171.435 25.6435C172.161 25.6435 172.846 25.5079 173.492 25.235C174.14 24.9638 174.703 24.5822 175.181 24.09C175.66 23.5978 176.038 23.0018 176.316 22.3038C176.594 21.604 176.733 20.8339 176.733 19.9936Z" fill="#6A6A6A"/>
<path d="M192.076 25.4853C192.283 25.5506 192.489 25.5925 192.697 25.6125C192.904 25.631 193.11 25.641 193.318 25.641C193.835 25.641 194.334 25.569 194.813 25.4267C195.291 25.2844 195.742 25.0802 196.162 24.814C196.582 24.5495 196.957 24.2264 197.287 23.8431C197.617 23.4614 197.886 23.0378 198.092 22.5708L201.976 26.473C201.484 27.1728 200.918 27.8005 200.277 28.3563C199.636 28.9121 198.944 29.3842 198.199 29.7743C197.454 30.1626 196.672 30.4556 195.851 30.6582C195.029 30.859 194.183 30.9595 193.318 30.9595C191.855 30.9595 190.48 30.6866 189.191 30.1442C187.902 29.6002 186.777 28.8435 185.813 27.8725C184.849 26.9016 184.087 25.7448 183.531 24.4055C182.974 23.0663 182.696 21.5931 182.696 19.9894C182.696 18.3856 182.974 16.8438 183.531 15.4861C184.087 14.1268 184.849 12.9684 185.813 12.0108C186.777 11.0516 187.902 10.3083 189.191 9.7776C190.478 9.24692 191.853 8.98242 193.318 8.98242C194.185 8.98242 195.032 9.08621 195.861 9.2938C196.689 9.49971 197.476 9.79769 198.219 10.1861C198.964 10.5745 199.659 11.0499 200.307 11.614C200.955 12.1765 201.524 12.8077 202.016 13.5074L192.076 25.4853ZM194.794 14.5537C194.548 14.4633 194.305 14.4047 194.066 14.3779C193.827 14.3528 193.577 14.3394 193.319 14.3394C192.594 14.3394 191.911 14.4733 191.27 14.7378C190.629 15.004 190.073 15.3824 189.601 15.8729C189.129 16.3667 188.756 16.9576 188.485 17.649C188.212 18.3421 188.076 19.1222 188.076 19.9894C188.076 20.1836 188.086 20.4029 188.105 20.6489C188.123 20.895 188.157 21.1445 188.202 21.3973C188.247 21.65 188.302 21.8911 188.366 22.1238C188.431 22.3582 188.515 22.5641 188.619 22.7449L194.793 14.552L194.794 14.5537Z" fill="#6A6A6A"/>
<path d="M51.2417 37.9008V33.4629H52.4052C52.747 33.4629 53.052 33.5449 53.322 33.7107C53.5921 33.8764 53.8038 34.1141 53.9555 34.4221C54.1072 34.7318 54.1822 35.0834 54.1822 35.4768V35.8853C54.1822 36.282 54.1072 36.6336 53.9572 36.9399C53.8071 37.2463 53.5954 37.484 53.322 37.6497C53.0487 37.8171 52.7353 37.8992 52.3802 37.8992H51.2434L51.2417 37.9008ZM51.5934 33.7793V37.5828H52.3819C52.8203 37.5828 53.172 37.4271 53.4371 37.1174C53.7021 36.8077 53.8338 36.3875 53.8338 35.8585V35.4684C53.8338 34.9578 53.7038 34.5494 53.4421 34.2413C53.1804 33.9333 52.837 33.7793 52.4102 33.7776H51.5934V33.7793Z" fill="#6A6A6A"/>
<path d="M63.2216 35.7731H61.2763V37.5844H63.5133V37.9008H60.9246V33.4629H63.4983V33.7793H61.2763V35.455H63.2216V35.7714V35.7731Z" fill="#6A6A6A"/>
<path d="M72.4605 36.81C72.4605 36.5639 72.3788 36.3698 72.2171 36.2258C72.0554 36.0818 71.7587 35.9462 71.3286 35.8173C70.8985 35.6884 70.5835 35.5478 70.3851 35.3955C70.1034 35.1795 69.9617 34.8983 69.9617 34.5484C69.9617 34.1985 70.0934 33.9323 70.3551 33.7214C70.6168 33.5088 70.9519 33.4033 71.3586 33.4033C71.6353 33.4033 71.882 33.4602 72.1004 33.5741C72.3188 33.6879 72.4871 33.8469 72.6072 34.0495C72.7272 34.2521 72.7872 34.4797 72.7872 34.7292H72.4321C72.4321 34.4262 72.3355 34.1818 72.1404 33.9976C71.9471 33.8135 71.6853 33.7214 71.357 33.7214C71.0286 33.7214 70.7852 33.7967 70.5968 33.9491C70.4085 34.0997 70.3135 34.2989 70.3135 34.5434C70.3135 34.7694 70.3985 34.9535 70.5685 35.0958C70.7385 35.2381 71.0086 35.3636 71.382 35.4725C71.7554 35.5813 72.0387 35.6934 72.2304 35.8106C72.4221 35.9278 72.5672 36.0667 72.6655 36.2291C72.7622 36.3915 72.8105 36.584 72.8105 36.805C72.8105 37.1549 72.6788 37.4345 72.4171 37.6471C72.1554 37.858 71.8104 37.9635 71.382 37.9635C71.0886 37.9635 70.8202 37.9082 70.5752 37.7961C70.3301 37.6839 70.1451 37.5282 70.0184 37.3273C69.8917 37.1264 69.8284 36.8954 69.8284 36.6359H70.1801C70.1801 36.949 70.2901 37.1951 70.5085 37.3759C70.7269 37.5567 71.0186 37.6471 71.382 37.6471C71.7053 37.6471 71.9654 37.5701 72.1621 37.4177C72.3588 37.2654 72.4571 37.0628 72.4571 36.8117L72.4605 36.81Z" fill="#6A6A6A"/>
<path d="M79.8497 37.9008H79.4985V33.4629H79.8497V37.9008Z" fill="#6A6A6A"/>
<path d="M89.8348 37.3725C89.7131 37.5567 89.5214 37.7023 89.2613 37.8061C89.0013 37.9099 88.7096 37.9618 88.3878 37.9618C88.0661 37.9618 87.7727 37.8781 87.5194 37.7124C87.266 37.5449 87.0693 37.3106 86.9309 37.0059C86.7926 36.7012 86.7209 36.3513 86.7192 35.9579V35.3971C86.7192 34.7811 86.8643 34.2956 87.156 33.939C87.4477 33.5824 87.8394 33.4033 88.3312 33.4033C88.7596 33.4033 89.1046 33.5188 89.3647 33.7515C89.6264 33.9842 89.7814 34.304 89.8297 34.7124H89.478C89.4264 34.386 89.303 34.1399 89.1046 33.9708C88.9079 33.8034 88.6496 33.718 88.3312 33.718C87.9428 33.718 87.6344 33.8654 87.4077 34.16C87.181 34.4546 87.0676 34.8715 87.0676 35.4072V35.9312C87.0676 36.2693 87.121 36.5673 87.2293 36.8268C87.3377 37.0863 87.491 37.2871 87.6927 37.4294C87.8944 37.5717 88.1245 37.642 88.3862 37.642C88.6896 37.642 88.9496 37.5918 89.1663 37.4897C89.308 37.4227 89.4114 37.3441 89.4814 37.2553V36.1086H88.3645V35.7922H89.8331V37.3708L89.8348 37.3725Z" fill="#6A6A6A"/>
<path d="M99.7815 37.9008H99.4297L97.0377 34.1024V37.9008H96.6826V33.4629H97.0377L99.4314 37.2647V33.4629H99.7798V37.9008H99.7815Z" fill="#6A6A6A"/>
<path d="M116.97 37.3725C116.848 37.5567 116.657 37.7023 116.397 37.8061C116.137 37.9099 115.845 37.9618 115.523 37.9618C115.201 37.9618 114.908 37.8781 114.655 37.7124C114.401 37.5449 114.205 37.3106 114.066 37.0059C113.928 36.7012 113.856 36.3513 113.854 35.9579V35.3971C113.854 34.7811 114 34.2956 114.291 33.939C114.583 33.5824 114.975 33.4033 115.466 33.4033C115.895 33.4033 116.24 33.5188 116.5 33.7515C116.762 33.9842 116.917 34.304 116.965 34.7124H116.613C116.562 34.386 116.438 34.1399 116.24 33.9708C116.043 33.8034 115.785 33.718 115.466 33.718C115.078 33.718 114.77 33.8654 114.543 34.16C114.316 34.4546 114.203 34.8715 114.203 35.4072V35.9312C114.203 36.2693 114.256 36.5673 114.365 36.8268C114.473 37.0863 114.626 37.2871 114.828 37.4294C115.03 37.5717 115.26 37.642 115.521 37.642C115.825 37.642 116.085 37.5918 116.302 37.4897C116.443 37.4227 116.547 37.3441 116.617 37.2553V36.1086H115.5V35.7922H116.968V37.3708L116.97 37.3725Z" fill="#6A6A6A"/>
<path d="M125.373 36.051H124.165V37.9008H123.81V33.4629H125.161C125.605 33.4629 125.952 33.5784 126.202 33.8061C126.452 34.0354 126.577 34.3568 126.577 34.7687C126.577 35.0532 126.498 35.3044 126.343 35.5203C126.187 35.7379 125.978 35.8869 125.715 35.9706L126.755 37.8606V37.9008H126.38L125.375 36.051H125.373ZM124.163 35.7346H125.24C125.535 35.7346 125.772 35.6459 125.952 35.4651C126.13 35.2859 126.22 35.0532 126.22 34.7687C126.22 34.4556 126.127 34.2112 125.94 34.0388C125.753 33.8663 125.492 33.7793 125.155 33.7793H124.163V35.7329V35.7346Z" fill="#6A6A6A"/>
<path d="M136.458 35.9245C136.458 36.3329 136.392 36.6912 136.26 37.0009C136.128 37.3106 135.938 37.5483 135.693 37.714C135.448 37.8814 135.163 37.9635 134.841 37.9635C134.356 37.9635 133.963 37.7776 133.664 37.4077C133.366 37.036 133.216 36.5372 133.216 35.906V35.449C133.216 35.0439 133.283 34.6856 133.418 34.3743C133.551 34.0629 133.743 33.8218 133.988 33.6544C134.233 33.487 134.516 33.4033 134.836 33.4033C135.156 33.4033 135.438 33.4853 135.683 33.6494C135.928 33.8135 136.117 34.0462 136.25 34.3475C136.383 34.6488 136.453 34.997 136.458 35.3938V35.9245ZM136.107 35.444C136.107 34.91 135.993 34.4915 135.766 34.1885C135.54 33.8855 135.23 33.7348 134.835 33.7348C134.44 33.7348 134.14 33.8871 133.911 34.1901C133.681 34.4931 133.566 34.9183 133.566 35.4624V35.9261C133.566 36.4518 133.681 36.8703 133.91 37.1767C134.138 37.4847 134.448 37.6387 134.841 37.6387C135.235 37.6387 135.55 37.4864 135.773 37.1833C135.997 36.8803 136.108 36.4568 136.108 35.9144V35.4457L136.107 35.444Z" fill="#6A6A6A"/>
<path d="M146.062 33.4629V36.4929C146.06 36.7909 145.999 37.0521 145.877 37.2731C145.755 37.494 145.584 37.6648 145.362 37.7836C145.14 37.9025 144.885 37.9628 144.597 37.9628C144.158 37.9628 143.808 37.8355 143.543 37.5794C143.28 37.3249 143.143 36.9717 143.133 36.5197V33.4629H143.482V36.4662C143.482 36.8395 143.582 37.1308 143.782 37.3367C143.982 37.5426 144.253 37.6464 144.597 37.6464C144.94 37.6464 145.21 37.5426 145.41 37.335C145.609 37.1274 145.709 36.8395 145.709 36.4695V33.4646H146.064L146.062 33.4629Z" fill="#6A6A6A"/>
<path d="M153.243 36.0928V37.9008H152.891V33.4629H154.308C154.74 33.4629 155.082 33.5801 155.333 33.8161C155.583 34.0522 155.708 34.3753 155.708 34.7887C155.708 35.2022 155.588 35.527 155.347 35.753C155.105 35.979 154.757 36.0928 154.3 36.0928H153.243ZM153.243 35.7764H154.308C154.65 35.7764 154.91 35.6894 155.088 35.517C155.267 35.3445 155.357 35.1035 155.357 34.7938C155.357 34.4841 155.268 34.2413 155.09 34.0589C154.912 33.8764 154.658 33.7843 154.332 33.7793H153.243V35.7764Z" fill="#6A6A6A"/>
</svg>
