<svg xmlns="http://www.w3.org/2000/svg" width="32" height="32" viewBox="0 0 32 32" fill="none">
  <g clip-path="url(#clip0_27_6692)">
    <path d="M15.9951 2.66669C17.0191 2.66669 17.8778 2.96002 18.5978 3.52802C19.2738 4.06135 19.7484 4.78135 20.1378 5.47735C20.3058 5.77958 20.4658 6.08358 20.6178 6.38935C20.9262 6.3218 21.236 6.25958 21.5471 6.20269C22.3418 6.06269 23.2058 5.97202 24.0538 6.15735C24.9604 6.35469 25.7364 6.83869 26.3871 7.64402C27.0791 8.49602 27.3831 9.40535 27.3551 10.38C27.3284 11.28 27.0191 12.1467 26.6858 12.9334C26.5889 13.1627 26.488 13.3925 26.3831 13.6227C26.6258 13.8236 26.8644 14.028 27.0991 14.236C27.7098 14.78 28.3258 15.4094 28.7124 16.196C29.1271 17.036 29.2311 17.9587 28.9938 18.9814C28.7698 19.9534 28.3084 20.7147 27.6164 21.2854C26.9631 21.824 26.1791 22.1294 25.4311 22.352C25.0951 22.4534 24.7218 22.5494 24.3378 22.644C24.3311 23.0707 24.3204 23.4894 24.2938 23.8734C24.2391 24.6347 24.1098 25.4454 23.7271 26.1854C23.3244 26.9667 22.6938 27.5694 21.8178 27.996C20.8538 28.4667 19.9164 28.5667 18.9884 28.3374C18.1258 28.124 17.3631 27.6467 16.6844 27.16C16.4551 26.9956 16.2275 26.8267 16.0018 26.6534C15.776 26.8258 15.5498 26.9938 15.3231 27.1574C14.6431 27.644 13.8804 28.124 13.0178 28.3387C12.0884 28.5694 11.1511 28.4694 10.1844 27.9987C9.3111 27.572 8.68044 26.972 8.27777 26.192C7.8951 25.4534 7.76444 24.6454 7.70844 23.884C7.68103 23.4726 7.66636 23.0604 7.66444 22.648C7.299 22.5611 6.93577 22.465 6.5751 22.36C5.82577 22.136 5.04177 21.8334 4.38577 21.2934C3.69244 20.7227 3.22977 19.96 3.00444 18.9867C2.76844 17.9654 2.8711 17.0454 3.28444 16.204C3.66844 15.4187 4.28444 14.7894 4.89377 14.244C5.12844 14.0351 5.36844 13.8298 5.61377 13.628L5.3111 12.944C4.97777 12.1574 4.66577 11.2907 4.63777 10.388C4.60977 9.41469 4.91377 8.50269 5.60444 7.64802C6.2551 6.84535 7.0311 6.36002 7.93644 6.16269C8.7831 5.97602 9.6471 6.06669 10.4418 6.20669C10.7529 6.2618 11.064 6.32358 11.3751 6.39202C11.5262 6.08624 11.6849 5.78402 11.8511 5.48535C12.2404 4.78535 12.7138 4.06669 13.3898 3.53069C14.1098 2.96002 14.9711 2.66669 15.9951 2.66669ZM10.3471 23.34L10.3671 23.6894C10.4124 24.316 10.5071 24.7027 10.6444 24.9667C10.7604 25.1907 10.9458 25.404 11.3524 25.6027C11.7924 25.816 12.0911 25.8214 12.3738 25.7494C12.7204 25.664 13.1418 25.4387 13.7604 24.996C13.1204 24.564 12.4542 24.1765 11.7618 23.8334C11.297 23.65 10.8251 23.4855 10.3471 23.34ZM21.6511 23.3374C21.1978 23.476 20.7311 23.6347 20.2511 23.8254C19.4911 24.2 18.8351 24.596 18.2404 24.9947C18.8591 25.4374 19.2804 25.6614 19.6271 25.748C19.9098 25.8187 20.2098 25.8134 20.6471 25.6C21.0551 25.4 21.2404 25.1867 21.3564 24.9627C21.4938 24.6974 21.5871 24.3107 21.6324 23.6827L21.6511 23.3374ZM19.1684 9.42935C18.3924 9.57602 17.5324 9.71202 16.6124 9.78402L15.9884 9.82269L15.9231 9.82002C14.882 9.7617 13.8463 9.63161 12.8231 9.43069C12.3589 10.3061 11.8378 11.1501 11.2631 11.9574L11.2004 12.0374C10.4834 12.8752 9.70482 13.6582 8.8711 14.38C9.30844 15.4014 9.66444 16.456 9.93777 17.5334L10.1018 18.232L10.1084 18.2814C10.2089 19.0351 10.2715 19.792 10.2964 20.552C10.9338 20.7209 11.5627 20.9178 12.1831 21.1427L12.8458 21.3947L12.8924 21.4174C13.98 21.9584 15.0193 22.5914 15.9991 23.3094C16.8323 22.7035 17.7059 22.1551 18.6138 21.668L19.1684 21.3854L19.2164 21.3667C20.028 21.0467 20.8574 20.7738 21.7004 20.5494C21.7182 20.0382 21.752 19.5285 21.8018 19.02L21.8978 18.208L21.9084 18.1587C22.1951 16.8627 22.6018 15.596 23.1244 14.376C22.4524 13.7956 21.8178 13.1765 21.2204 12.5187L20.7471 11.98L20.7178 11.9387C20.1474 11.1368 19.6299 10.2985 19.1684 9.42935ZM6.7231 16.1854L6.66844 16.2347C6.1231 16.72 5.82844 17.0707 5.67644 17.3787C5.55244 17.632 5.49377 17.92 5.60177 18.3867C5.70577 18.8387 5.87644 19.068 6.0791 19.2347C6.32044 19.4347 6.69777 19.6147 7.3351 19.804L7.5911 19.8774C7.5642 19.4806 7.52462 19.0849 7.47244 18.6907C7.2861 17.8379 7.03561 17.0004 6.7231 16.1854ZM25.2724 16.18C24.9613 16.9907 24.7124 17.8205 24.5258 18.6694C24.4724 19.0827 24.4324 19.484 24.4058 19.8734L24.6658 19.7987C25.3004 19.608 25.6764 19.4267 25.9191 19.228C26.1191 19.0614 26.2911 18.832 26.3951 18.3814C26.5018 17.9134 26.4431 17.624 26.3191 17.372C26.1858 17.1027 25.9431 16.8 25.5164 16.4027L25.2724 16.18ZM8.50577 8.76802C8.23777 8.82669 7.97644 8.95735 7.67777 9.32669C7.36444 9.71335 7.2951 10.0067 7.30444 10.3094C7.3151 10.6694 7.4431 11.1294 7.7311 11.82C8.22595 11.3593 8.69341 10.87 9.1311 10.3547C9.41377 9.96135 9.66044 9.58402 9.8831 9.21735L10.0964 8.85469L9.97777 8.83202C9.2791 8.70935 8.83244 8.69602 8.50577 8.76802ZM22.2618 8.78802L21.8938 8.85069C22.1684 9.32535 22.4804 9.81869 22.8511 10.3387C23.3311 10.9027 23.8018 11.384 24.2618 11.8147C24.5498 11.124 24.6778 10.6654 24.6884 10.304C24.6978 10.0014 24.6271 9.70669 24.3151 9.32135C24.0151 8.95202 23.7551 8.82135 23.4858 8.76269C23.2004 8.70135 22.8218 8.70269 22.2618 8.78802ZM15.9938 5.33335C15.5218 5.33335 15.2578 5.45335 15.0444 5.62135C14.7871 5.82535 14.5191 6.17202 14.1791 6.78135L14.0884 6.94935C14.6724 7.04269 15.2978 7.11735 15.9884 7.15335C16.6844 7.11735 17.3138 7.04269 17.9018 6.94802L17.8084 6.77735C17.4684 6.16935 17.2004 5.82402 16.9431 5.62002C16.7298 5.45202 16.4658 5.33335 15.9938 5.33335Z" fill="white"/>
  </g>
  <defs>
    <clipPath id="clip0_27_6692">
      <rect width="32" height="32" fill="white"/>
    </clipPath>
  </defs>
</svg>