<svg width="32" height="32" viewBox="0 0 32 32" fill="none" xmlns="http://www.w3.org/2000/svg">
<path d="M16.0001 2.66669C16.3537 2.66669 16.6928 2.80716 16.9429 3.05721C17.1929 3.30726 17.3334 3.6464 17.3334 4.00002C17.3334 4.35364 17.1929 4.69278 16.9429 4.94283C16.6928 5.19288 16.3537 5.33335 16.0001 5.33335C13.8904 5.33335 11.8281 5.95894 10.074 7.13101C8.31987 8.30308 6.9527 9.96899 6.14537 11.9181C5.33803 13.8671 5.1268 16.0119 5.53837 18.081C5.94995 20.1501 6.96585 22.0507 8.45761 23.5425C9.94937 25.0343 11.85 26.0502 13.9191 26.4617C15.9882 26.8733 18.133 26.6621 20.082 25.8547C22.0311 25.0474 23.697 23.6802 24.8691 21.9261C26.0412 20.172 26.6667 18.1097 26.6667 16C26.6667 15.6464 26.8072 15.3073 27.0573 15.0572C27.3073 14.8072 27.6465 14.6667 28.0001 14.6667C28.3537 14.6667 28.6928 14.8072 28.9429 15.0572C29.1929 15.3073 29.3334 15.6464 29.3334 16C29.3334 23.364 23.3641 29.3334 16.0001 29.3334C8.63608 29.3334 2.66675 23.364 2.66675 16C2.66675 8.63602 8.63608 2.66669 16.0001 2.66669ZM16.0001 8.00002C16.3537 8.00002 16.6928 8.1405 16.9429 8.39054C17.1929 8.64059 17.3334 8.97973 17.3334 9.33335C17.3334 9.68698 17.1929 10.0261 16.9429 10.2762C16.6928 10.5262 16.3537 10.6667 16.0001 10.6667C14.9452 10.6667 13.9141 10.9795 13.037 11.5655C12.16 12.1515 11.4764 12.9845 11.0727 13.959C10.6691 14.9336 10.5634 16.0059 10.7692 17.0405C10.975 18.0751 11.483 19.0254 12.2288 19.7713C12.9747 20.5171 13.925 21.0251 14.9596 21.2309C15.9942 21.4367 17.0665 21.331 18.0411 20.9274C19.0156 20.5237 19.8486 19.8401 20.4346 18.9631C21.0206 18.086 21.3334 17.0549 21.3334 16C21.3334 15.6464 21.4739 15.3073 21.7239 15.0572C21.974 14.8072 22.3131 14.6667 22.6667 14.6667C23.0204 14.6667 23.3595 14.8072 23.6096 15.0572C23.8596 15.3073 24.0001 15.6464 24.0001 16C24.0001 17.5823 23.5309 19.129 22.6518 20.4446C21.7728 21.7602 20.5234 22.7856 19.0615 23.3911C17.5997 23.9966 15.9912 24.155 14.4394 23.8463C12.8875 23.5376 11.462 22.7757 10.3432 21.6569C9.22441 20.5381 8.46248 19.1126 8.1538 17.5607C7.84512 16.0089 8.00354 14.4004 8.60904 12.9386C9.21455 11.4767 10.2399 10.2273 11.5555 9.34826C12.8711 8.46921 14.4178 8.00002 16.0001 8.00002ZM24.7614 2.80002C24.9382 2.80002 25.1078 2.87026 25.2328 2.99528C25.3578 3.12031 25.4281 3.28988 25.4281 3.46669V5.90669C25.4284 6.08327 25.4988 6.25249 25.6238 6.37723C25.7488 6.50197 25.9182 6.57202 26.0947 6.57202H28.5334C28.7102 6.57202 28.8798 6.64226 29.0048 6.76728C29.1298 6.89231 29.2001 7.06188 29.2001 7.23869V8.45869L26.6827 10.976C26.1828 11.4762 25.5046 11.7572 24.7974 11.7574H22.1307L16.9441 16.9427C16.6926 17.1856 16.3558 17.32 16.0062 17.3169C15.6566 17.3139 15.3222 17.1737 15.075 16.9264C14.8278 16.6792 14.6876 16.3448 14.6845 15.9952C14.6815 15.6456 14.8159 15.3088 15.0587 15.0574L20.2454 9.87202V7.20535C20.2452 6.49836 20.5258 5.82022 21.0254 5.32002L23.5454 2.80002H24.7614Z" fill="#F7F7F7"/>
</svg>
