<svg xmlns="http://www.w3.org/2000/svg" width="24" height="24" viewBox="0 0 24 24" fill="none">
  <path d="M19.07 4.93007C18.62 4.48007 18.12 4.07007 17.59 3.71007C17.0557 3.34699 16.4862 3.03876 15.89 2.79007C15.29 2.54007 14.65 2.34007 14.01 2.21007C12.69 1.94007 11.3 1.94007 9.98 2.21007C9.34 2.34007 8.71 2.54007 8.1 2.79007C6.31212 3.54253 4.78287 4.80068 3.7 6.41007C3.33692 6.94434 3.02869 7.51389 2.78 8.11007C2.53 8.71007 2.33 9.35007 2.2 9.99007C2.07 10.6501 2 11.3301 2 12.0001C2 12.6701 2.07 13.3501 2.2 14.0101C2.33 14.6501 2.53 15.2801 2.78 15.8901C3.53246 17.678 4.79061 19.2072 6.4 20.2901C6.93 20.6501 7.5 20.9601 8.1 21.2101C8.7 21.4601 9.34 21.6601 9.98 21.7901C10.64 21.9201 11.32 21.9901 11.99 21.9901C12.66 21.9901 13.34 21.9201 14 21.7901C14.64 21.6601 15.27 21.4601 15.88 21.2101C17.6679 20.4576 19.1971 19.1995 20.28 17.5901C20.64 17.0601 20.95 16.4901 21.2 15.8901C21.45 15.2901 21.65 14.6501 21.78 14.0101C21.91 13.3501 21.98 12.6701 21.98 12.0001H19.98C19.9839 13.0688 19.7695 14.1271 19.35 15.1101C19.15 15.5901 18.9 16.0401 18.61 16.4701C18.33 16.8901 18 17.2901 17.63 17.6601C17.27 18.0201 16.87 18.3501 16.45 18.6401C16.02 18.9301 15.57 19.1801 15.09 19.3801C14.61 19.5801 14.1 19.7401 13.59 19.8501C12.0021 20.1762 10.3526 20.0123 8.86 19.3801C8.38 19.1801 7.93 18.9301 7.5 18.6401C7.08 18.3501 6.68 18.0201 6.32 17.6601C5.96 17.3001 5.63 16.9001 5.34 16.4701C5.04994 16.0417 4.80211 15.5863 4.6 15.1101C4.4 14.6301 4.24 14.1201 4.13 13.6101C4.0224 13.0802 3.96879 12.5408 3.97 12.0001C3.9661 10.9313 4.18048 9.87304 4.6 8.89007C4.8 8.41007 5.05 7.96007 5.34 7.53007C5.63 7.11007 5.96 6.71007 6.32 6.35007C6.68 5.99007 7.08 5.66007 7.5 5.37007C7.93 5.08007 8.38 4.83007 8.86 4.63007C9.34 4.43007 9.85 4.27007 10.36 4.16007C11.9479 3.8339 13.5974 3.9978 15.09 4.63007C15.57 4.83007 16.02 5.08007 16.45 5.37007C16.87 5.66007 17.27 5.99007 17.63 6.35007C17.8 6.52007 17.95 6.69007 18.11 6.87007L15.98 9.00007H21.98V3.00007L19.53 5.45007C19.38 5.27007 19.22 5.09007 19.05 4.93007H19.07Z" fill="#91D200"/>
</svg>