<svg xmlns="http://www.w3.org/2000/svg" width="224" height="45" viewBox="0 0 224 45" fill="none">
  <path d="M30.938 27.8327L15.468 36.5834V45L29.0815 37.2991C30.2303 36.6498 30.938 35.4486 30.938 34.1499V27.8327Z" fill="#91D200"/>
  <path d="M0 19.4161L15.47 28.1667V36.5834L1.85649 28.8825C0.707632 28.2331 0 27.0319 0 25.7332V19.4161Z" fill="#91D200"/>
  <path d="M20.6253 0L15.47 2.91688V11.3335L18.7709 9.46637C19.9198 8.81702 20.6274 7.61583 20.6274 6.31714V0H20.6253Z" fill="#91D200"/>
  <path d="M25.7806 13.9164L15.468 19.7501V28.1667L23.9241 23.3827C25.073 22.7334 25.7806 21.5322 25.7806 20.2335V13.9164Z" fill="#91D200"/>
  <path d="M5.15529 5.49975L15.4679 11.3335L15.468 19.7501L7.01177 14.9661C5.86292 14.3168 5.15529 13.1156 5.15529 11.8169V5.49975Z" fill="#91D200"/>
  <path d="M84.6075 25.2478L86.2995 29.4966C83.9144 31.4508 80.7051 32.7267 77.3647 32.7267C71.0772 32.7267 66.436 28.2642 66.436 22.528C66.436 16.7917 70.9898 12.2878 77.0608 12.2878C82.2223 12.2878 86.4286 15.603 86.9489 21.4658L72.5507 26.0133C73.5476 27.4572 75.2397 28.3493 77.4084 28.3493C79.577 28.3493 82.0912 27.4572 84.6075 25.2478ZM71.5975 21.8911L81.1817 18.8311C80.3575 17.4286 78.884 16.6216 77.1045 16.6216C74.1117 16.6216 71.9013 18.8311 71.5975 21.8911Z" fill="#051725"/>
  <path d="M108.386 25.2478L110.078 29.4966C107.693 31.4508 104.484 32.7267 101.143 32.7267C94.8556 32.7267 90.2144 28.2642 90.2144 22.528C90.2144 16.7917 94.7682 12.2878 100.839 12.2878C106.001 12.2878 110.207 15.603 110.727 21.4658L96.3291 26.0133C97.326 27.4572 99.0181 28.3493 101.187 28.3493C103.355 28.3493 105.872 27.4572 108.386 25.2478ZM95.3759 21.8911L104.96 18.8311C104.136 17.4286 102.66 16.6216 100.883 16.6216C97.8901 16.6216 95.6777 18.8311 95.3759 21.8911Z" fill="#051725"/>
  <path d="M150.078 12.5492H155.499V24.1171C155.499 29.1584 151.624 32.7267 145.886 32.7267C140.148 32.7267 136.379 29.1999 136.379 24.2416V12.5492H141.821V23.5777C141.821 26.1087 143.495 27.8307 145.886 27.8307C148.406 27.8307 150.078 26.1087 150.078 23.5777V12.5492Z" fill="#051725"/>
  <path d="M124.697 12.3314C124.341 12.3023 123.979 12.2857 123.606 12.2857C122.066 12.2857 120.667 12.5492 119.435 13.0222V3.25295H113.993V32.4653H119.435V21.4762C119.435 18.717 121.552 17.2233 123.925 17.2233C124.056 17.2233 124.185 17.2295 124.312 17.2399C126.32 17.5469 127.671 19.163 127.671 21.4368V32.4674H133.113V20.7729C133.113 16.1341 129.833 12.7504 124.697 12.3314Z" fill="#051725"/>
  <path d="M188.313 32.4653H182.891V3.25295H188.313V32.4653Z" fill="#051725"/>
  <path d="M57.0307 15.159V12.5492H51.609V32.4674H57.0515V23.9449C57.0515 19.2564 60.059 16.9951 64.5254 16.9951C64.6482 16.9951 64.7793 17.0034 64.9062 17.0054V12.5907C64.9062 12.5907 59.6302 10.9829 57.0287 15.159H57.0307Z" fill="#051725"/>
  <path d="M195.911 41.7595H201.783L214.191 12.5492H208.32L202.884 25.3432L197.449 12.5492H191.578L199.949 32.2558L195.911 41.7595Z" fill="#051725"/>
  <path d="M45.9002 27.9945C44.0791 27.9945 42.8927 27.0817 42.8927 25.0071V12.5471H48.329V7.22164H42.8927V3.25295H37.4711V25.7747C37.4711 30.4633 40.4785 32.7246 44.9449 32.7246C46.0292 32.7246 47.2655 32.5877 48.3415 32.3616V27.7435C47.4902 27.9053 46.6224 27.9925 45.8981 27.9925L45.9002 27.9945Z" fill="#051725"/>
  <path d="M169.196 12.2857C167.381 12.2857 165.673 12.7421 164.187 13.5409V3.25502H158.765V32.4674H164.187V31.4716C165.673 32.2703 167.381 32.7267 169.196 32.7267C174.957 32.7267 179.627 28.1501 179.627 22.5072C179.627 16.8644 174.957 12.2878 169.196 12.2878V12.2857ZM169.196 27.4137C166.43 27.4137 164.187 25.2167 164.187 22.5052C164.187 19.7937 166.43 17.5967 169.196 17.5967C171.962 17.5967 174.206 19.7937 174.206 22.5052C174.206 25.2167 171.962 27.4137 169.196 27.4137Z" fill="#051725"/>
  <path d="M217.456 12.9807V12.5492H220.041V12.9807H218.999V15.8769H218.497V12.9807H217.456Z" fill="#051725"/>
  <path d="M220.61 12.5492H221.222L222.285 15.1362H222.325L223.388 12.5492H224V15.8769H223.521V13.4683H223.49L222.506 15.8727H222.108L221.124 13.4683H221.092V15.8789H220.614V12.5513L220.61 12.5492Z" fill="#051725"/>
</svg>