<svg width="65" height="96" viewBox="0 0 65 96" fill="none" xmlns="http://www.w3.org/2000/svg">
<path d="M65 59.3754L32.5025 78.0446V96L61.1005 79.5708C63.5154 78.1825 65 75.6224 65 72.8505V59.3754Z" fill="#F7F7F7"/>
<path d="M0 41.4199L32.4975 60.0892V78.0446L3.89951 61.6154C1.48459 60.2271 0 57.6669 0 54.8951V41.4199Z" fill="#F7F7F7"/>
<path d="M43.335 0L32.5025 6.2231V24.1785L39.4355 20.1955C41.8504 18.8071 43.335 16.247 43.335 13.4752V0Z" fill="#F7F7F7"/>
<path d="M54.1675 29.6876L32.5025 42.1338V60.0892L50.268 49.8831C52.6829 48.4947 54.1675 45.9346 54.1675 43.1627V29.6876Z" fill="#F7F7F7"/>
<path d="M10.8325 11.7323L32.4975 24.1785V42.1339L14.732 31.9278C12.317 30.5394 10.8325 27.9793 10.8325 25.2075V11.7323Z" fill="#F7F7F7"/>
</svg>
