<svg xmlns="http://www.w3.org/2000/svg" width="12" height="10" viewBox="0 0 12 10" fill="none">
  <path d="M1.28923 0.0972185C4.14923 0.247218 7.32923 -0.162782 10.1492 0.077218C10.9392 0.147218 11.4892 0.607218 11.5592 1.41722C11.7392 3.40722 11.4192 5.65722 11.5592 7.67722C11.4192 8.50722 10.9092 8.88722 10.0792 8.95722C7.29923 9.16722 4.27923 8.79722 1.47923 8.95722C0.699232 8.88722 0.199232 8.45722 0.0692321 7.68722C0.239232 5.67722 -0.150768 3.31722 0.0692321 1.35722C0.139232 0.697218 0.639232 0.197218 1.28923 0.107218V0.0972185ZM1.35923 0.987218C1.05923 1.06722 0.809232 1.42722 1.03923 1.69722C2.43923 2.49722 3.76923 3.66722 5.16923 4.44722C5.76923 4.78722 5.86923 4.77722 6.46923 4.44722C7.86923 3.66722 9.19923 2.49722 10.5992 1.69722C10.8592 1.38722 10.4992 0.977218 10.1592 0.977218L1.36923 0.997218L1.35923 0.987218ZM10.6692 2.68722L6.34923 5.48722C5.99923 5.60722 5.63923 5.60722 5.28923 5.48722L0.969232 2.68722V7.74722C0.969232 7.80722 1.35923 8.10722 1.47923 8.05722C4.24923 7.86722 7.35923 8.30722 10.0792 8.05722C10.2292 8.04722 10.6592 7.89722 10.6592 7.74722V2.68722H10.6692Z" fill="white"/>
</svg>