<svg xmlns="http://www.w3.org/2000/svg" width="9" height="12" viewBox="0 0 9 12" fill="none">
  <g clip-path="url(#clip0_1_66)">
    <path d="M5.5 5.75C5.16848 5.75 4.85054 5.6183 4.61612 5.38388C4.3817 5.14946 4.25 4.83152 4.25 4.5C4.25 4.16848 4.3817 3.85054 4.61612 3.61612C4.85054 3.3817 5.16848 3.25 5.5 3.25C5.83152 3.25 6.14946 3.3817 6.38388 3.61612C6.6183 3.85054 6.75 4.16848 6.75 4.5C6.75 4.66415 6.71767 4.8267 6.65485 4.97835C6.59203 5.13001 6.49996 5.26781 6.38388 5.38388C6.26781 5.49996 6.13001 5.59203 5.97835 5.65485C5.8267 5.71767 5.66415 5.75 5.5 5.75ZM5.5 1C4.57174 1 3.6815 1.36875 3.02513 2.02513C2.36875 2.6815 2 3.57174 2 4.5C2 7.125 5.5 11 5.5 11C5.5 11 9 7.125 9 4.5C9 3.57174 8.63125 2.6815 7.97487 2.02513C7.3185 1.36875 6.42826 1 5.5 1Z" fill="#1E1E1E"/>
  </g>
  <defs>
    <clipPath id="clip0_1_66">
      <rect width="9" height="11" fill="white" transform="translate(-0.00320435 0.5)"/>
    </clipPath>
  </defs>
</svg>