<svg xmlns="http://www.w3.org/2000/svg" width="24" height="24" viewBox="0 0 24 24" fill="none">
  <path d="M8 2.99998V17.5M15 6.49998V20.5M5.253 4.19598L4.026 4.90798C3.037 5.48098 2.543 5.76798 2.272 6.24498C2 6.72198 2 7.30198 2 8.46398V16.628C2 18.154 2 18.918 2.342 19.342C2.57 19.624 2.889 19.814 3.242 19.877C3.772 19.972 4.422 19.595 5.72 18.842C6.602 18.331 7.45 17.799 8.505 17.944C8.985 18.009 9.442 18.237 10.358 18.692L14.171 20.588C14.996 20.998 15.004 21 15.921 21H18C19.886 21 20.828 21 21.414 20.401C22 19.803 22 18.839 22 16.911V10.171C22 8.24398 22 7.28098 21.414 6.68098C20.828 6.08298 19.886 6.08298 18 6.08298H15.921C15.004 6.08298 14.996 6.08098 14.171 5.67098L10.84 4.01498C9.449 3.32298 8.753 2.97698 8.012 2.99998C7.271 3.02298 6.6 3.41498 5.253 4.19598Z" stroke="#051725" stroke-width="1.5" stroke-linecap="round" stroke-linejoin="round"/>
</svg>