<svg xmlns="http://www.w3.org/2000/svg" width="32" height="32" viewBox="0 0 32 32" fill="none">
  <g clip-path="url(#clip0_27_6682)">
    <path d="M28.5 4.19997C28.1562 3.97754 27.763 3.84297 27.3549 3.80809C26.9469 3.77322 26.5366 3.83911 26.16 3.99997L13.82 8.85997C13.5281 8.97986 13.2155 9.04103 12.9 9.03997H5C4.33696 9.03997 3.70107 9.30336 3.23223 9.77221C2.76339 10.241 2.5 10.8769 2.5 11.54V11.74H0V17.74H2.5V18C2.51567 18.6526 2.78596 19.2731 3.25311 19.7291C3.72027 20.185 4.34722 20.4402 5 20.44L8 26.8C8.20314 27.2283 8.52296 27.5906 8.92272 27.8453C9.32249 28.1 9.78599 28.2368 10.26 28.24H11.52C12.1796 28.2347 12.8103 27.969 13.2749 27.5007C13.7394 27.0324 14 26.3996 14 25.74V20.68L26.16 25.54C26.4595 25.6576 26.7782 25.7187 27.1 25.72C27.5992 25.7108 28.0853 25.558 28.5 25.28C28.829 25.0579 29.1003 24.7606 29.2916 24.4128C29.4829 24.0651 29.5886 23.6767 29.6 23.28V6.25997C29.5982 5.853 29.497 5.45264 29.3053 5.09364C29.1136 4.73464 28.8372 4.42787 28.5 4.19997ZM11.5 11.54V18H5V11.54H11.5ZM11.5 25.74H10.24L7.78 20.44H11.5V25.74ZM14.74 18.3C14.5025 18.1787 14.2549 18.0783 14 18V11.4C14.2524 11.3475 14.4999 11.2739 14.74 11.18L27.1 6.25997V23.22L14.74 18.3ZM29.66 12.24V17.24C30.323 17.24 30.9589 16.9766 31.4278 16.5077C31.8966 16.0389 32.16 15.403 32.16 14.74C32.16 14.0769 31.8966 13.441 31.4278 12.9722C30.9589 12.5034 30.323 12.24 29.66 12.24Z" fill="white"/>
  </g>
  <defs>
    <clipPath id="clip0_27_6682">
      <rect width="32" height="32" fill="white"/>
    </clipPath>
  </defs>
</svg>