<svg xmlns="http://www.w3.org/2000/svg" width="24" height="24" viewBox="0 0 24 24" fill="none">
  <path d="M8.713 10.713C8.90433 10.521 9 10.2833 9 10C9 9.71667 8.904 9.47933 8.712 9.288C8.52 9.09667 8.28267 9.00067 8 9C7.71733 8.99933 7.48 9.09533 7.288 9.288C7.096 9.48067 7 9.718 7 10C7 10.282 7.096 10.5197 7.288 10.713C7.48 10.9063 7.71733 11.002 8 11C8.28267 10.998 8.52033 10.902 8.713 10.712M12.713 10.712C12.9043 10.5213 13 10.284 13 10C13 9.716 12.904 9.47867 12.712 9.288C12.52 9.09733 12.2827 9.00133 12 9C11.7173 8.99867 11.48 9.09467 11.288 9.288C11.096 9.48133 11 9.71867 11 10C11 10.2813 11.096 10.519 11.288 10.713C11.48 10.907 11.7173 11.0027 12 11C12.2827 10.9973 12.5203 10.9013 12.713 10.712ZM16.713 10.712C16.9043 10.5213 17 10.284 17 10C17 9.716 16.904 9.47867 16.712 9.288C16.52 9.09733 16.2827 9.00133 16 9C15.7173 8.99867 15.48 9.09467 15.288 9.288C15.096 9.48133 15 9.71867 15 10C15 10.2813 15.096 10.519 15.288 10.713C15.48 10.907 15.7173 11.0027 16 11C16.2827 10.9973 16.5203 10.9013 16.713 10.712ZM2 22V4C2 3.45 2.196 2.97933 2.588 2.588C2.98 2.19667 3.45067 2.00067 4 2H20C20.55 2 21.021 2.196 21.413 2.588C21.805 2.98 22.0007 3.45067 22 4V16C22 16.55 21.8043 17.021 21.413 17.413C21.0217 17.805 20.5507 18.0007 20 18H6L2 22ZM5.15 16H20V4H4V17.125L5.15 16Z" fill="#051725"/>
</svg>