<svg xmlns="http://www.w3.org/2000/svg" width="24" height="24" viewBox="0 0 24 24" fill="none">
  <path d="M22.5 8.25C22.5 9.13642 22.3254 10.0142 21.9862 10.8331C21.647 11.6521 21.1498 12.3962 20.523 13.023C19.8962 13.6498 19.1521 14.147 18.3331 14.4862C17.5142 14.8254 16.6364 15 15.75 15C14.8636 15 13.9858 14.8254 13.1669 14.4862C12.3479 14.147 11.6038 13.6498 10.977 13.023C10.3502 12.3962 9.85303 11.6521 9.51381 10.8331C9.17459 10.0142 9 9.13642 9 8.25C9 6.45979 9.71116 4.7429 10.977 3.47703C12.2429 2.21116 13.9598 1.5 15.75 1.5C17.5402 1.5 19.2571 2.21116 20.523 3.47703C21.7888 4.7429 22.5 6.45979 22.5 8.25ZM18.531 6.531C18.6007 6.46127 18.656 6.37848 18.6938 6.28738C18.7315 6.19627 18.7509 6.09862 18.7509 6C18.7509 5.90138 18.7315 5.80373 18.6938 5.71262C18.656 5.62152 18.6007 5.53873 18.531 5.469C18.4613 5.39927 18.3785 5.34395 18.2874 5.30621C18.1963 5.26848 18.0986 5.24905 18 5.24905C17.9014 5.24905 17.8037 5.26848 17.7126 5.30621C17.6215 5.34395 17.5387 5.39927 17.469 5.469L15.75 7.1895L14.031 5.469C13.9613 5.39927 13.8785 5.34395 13.7874 5.30621C13.6963 5.26848 13.5986 5.24905 13.5 5.24905C13.4014 5.24905 13.3037 5.26848 13.2126 5.30621C13.1215 5.34395 13.0387 5.39927 12.969 5.469C12.8993 5.53873 12.844 5.62152 12.8062 5.71262C12.7685 5.80373 12.7491 5.90138 12.7491 6C12.7491 6.09862 12.7685 6.19627 12.8062 6.28738C12.844 6.37848 12.8993 6.46127 12.969 6.531L14.6895 8.25L12.969 9.969C12.8993 10.0387 12.844 10.1215 12.8062 10.2126C12.7685 10.3037 12.7491 10.4014 12.7491 10.5C12.7491 10.5986 12.7685 10.6963 12.8062 10.7874C12.844 10.8785 12.8993 10.9613 12.969 11.031C13.0387 11.1007 13.1215 11.156 13.2126 11.1938C13.3037 11.2315 13.4014 11.2509 13.5 11.2509C13.5986 11.2509 13.6963 11.2315 13.7874 11.1938C13.8785 11.156 13.9613 11.1007 14.031 11.031L15.75 9.3105L17.469 11.031C17.6098 11.1718 17.8008 11.2509 18 11.2509C18.1992 11.2509 18.3902 11.1718 18.531 11.031C18.6718 10.8902 18.7509 10.6992 18.7509 10.5C18.7509 10.3008 18.6718 10.1098 18.531 9.969L16.8105 8.25L18.531 6.531ZM15.75 16.5C17.745 16.5 19.575 15.792 21 14.6145V18.75C21 19.7446 20.6049 20.6984 19.9017 21.4017C19.1984 22.1049 18.2446 22.5 17.25 22.5H6.75C5.75544 22.5 4.80161 22.1049 4.09835 21.4017C3.39509 20.6984 3 19.7446 3 18.75V8.25C3 7.25544 3.39509 6.30161 4.09835 5.59835C4.80161 4.89509 5.75544 4.5 6.75 4.5H8.4C8.15501 4.97956 7.95757 5.48196 7.8105 6H6.75C6.15326 6 5.58097 6.23705 5.15901 6.65901C4.73705 7.08097 4.5 7.65326 4.5 8.25V13.5H8.25C8.44891 13.5 8.63968 13.579 8.78033 13.7197C8.92098 13.8603 9 14.0511 9 14.25C9 14.328 9.012 14.493 9.048 14.712C9.1095 15.0825 9.2205 15.453 9.39 15.789C9.852 16.716 10.6545 17.25 12 17.25C13.038 17.25 13.752 16.932 14.238 16.362C14.728 16.453 15.232 16.499 15.75 16.5Z" fill="#FF5050"/>
</svg>