<svg xmlns="http://www.w3.org/2000/svg" width="24" height="24" viewBox="0 0 24 24" fill="none">
  <path d="M6.00092 7.49005C6.26614 7.49005 6.52049 7.38469 6.70803 7.19716C6.89556 7.00962 7.00092 6.75527 7.00092 6.49005V5.90005L9.88092 8.78005C10.4434 9.34185 11.2059 9.65741 12.0009 9.65741C12.7959 9.65741 13.5584 9.34185 14.1209 8.78005L18.7109 4.19005C18.8972 4.00269 19.0017 3.74924 19.0017 3.48505C19.0017 3.22087 18.8972 2.96741 18.7109 2.78005C18.618 2.68632 18.5074 2.61193 18.3855 2.56116C18.2636 2.51039 18.1329 2.48425 18.0009 2.48425C17.8689 2.48425 17.7382 2.51039 17.6163 2.56116C17.4945 2.61193 17.3839 2.68632 17.2909 2.78005L12.7109 7.36005C12.618 7.45378 12.5074 7.52817 12.3855 7.57894C12.2636 7.62971 12.1329 7.65585 12.0009 7.65585C11.8689 7.65585 11.7382 7.62971 11.6163 7.57894C11.4945 7.52817 11.3839 7.45378 11.2909 7.36005L8.41092 4.49005H9.00092C9.26614 4.49005 9.52049 4.38469 9.70803 4.19716C9.89556 4.00962 10.0009 3.75527 10.0009 3.49005C10.0009 3.22483 9.89556 2.97048 9.70803 2.78294C9.52049 2.59541 9.26614 2.49005 9.00092 2.49005H6.00092C5.80463 2.49021 5.61272 2.54814 5.44913 2.65661C5.28553 2.76508 5.15747 2.9193 5.08092 3.10005C5.03075 3.2241 5.00364 3.35627 5.00092 3.49005V6.49005C5.00092 6.75527 5.10628 7.00962 5.29381 7.19716C5.48135 7.38469 5.7357 7.49005 6.00092 7.49005ZM21.9409 14.8501C19.0933 12.6526 15.5978 11.4606 12.0009 11.4606C8.40402 11.4606 4.9085 12.6526 2.06092 14.8501C1.76105 15.0926 1.51664 15.3967 1.34415 15.7417C1.17165 16.0867 1.07508 16.4646 1.06092 16.8501C1.03481 17.2308 1.09095 17.6128 1.22554 17.97C1.36013 18.3272 1.57 18.6512 1.84092 18.9201L3.60092 20.7201C4.05066 21.1696 4.64562 21.4446 5.27946 21.4959C5.91331 21.5472 6.54474 21.3715 7.06092 21.0001L7.53092 20.6801C7.85074 20.4731 8.18492 20.2893 8.53092 20.1301C8.956 19.9423 9.29487 19.6015 9.48015 19.1754C9.66543 18.7492 9.68356 18.269 9.53092 17.8301L9.44092 17.5901C11.1532 17.1506 12.9487 17.1506 14.6609 17.5901L14.5709 17.8301C14.4183 18.269 14.4364 18.7492 14.6217 19.1754C14.807 19.6015 15.1458 19.9423 15.5709 20.1301C15.9169 20.2893 16.2511 20.4731 16.5709 20.6801L17.0409 21.0001C17.4873 21.3277 18.0272 21.503 18.5809 21.5001C19.3002 21.5009 19.9906 21.2169 20.5009 20.7101L22.3109 18.8901C22.5644 18.6146 22.7569 18.2887 22.8758 17.9337C22.9947 17.5787 23.0373 17.2026 23.0009 16.8301C22.9773 16.4431 22.8704 16.0659 22.6874 15.7241C22.5045 15.3824 22.2498 15.0842 21.9409 14.8501ZM20.8009 17.4901L19.0009 19.3001C18.8915 19.414 18.7458 19.4864 18.5889 19.5046C18.432 19.5229 18.2736 19.4859 18.1409 19.4001C17.9509 19.2601 17.7609 19.1301 17.5509 19.0001C17.1984 18.7779 16.8346 18.5743 16.4609 18.3901L16.8609 17.3001C16.951 17.0507 16.9384 16.7759 16.8259 16.5359C16.7134 16.2958 16.5102 16.1103 16.2609 16.0201C13.5158 15.0203 10.5061 15.0203 7.76092 16.0201C7.51168 16.1103 7.30848 16.2958 7.19597 16.5359C7.08347 16.7759 7.07086 17.0507 7.16092 17.3001L7.56092 18.4001C7.18207 18.5769 6.81468 18.7773 6.46092 19.0001L5.88092 19.4001C5.74795 19.4955 5.58427 19.5381 5.42166 19.5196C5.25904 19.5011 5.1091 19.4229 5.00092 19.3001L3.20092 17.4901C3.13606 17.4262 3.08487 17.3499 3.05049 17.2656C3.0161 17.1814 2.99924 17.091 3.00092 17.0001C3.00922 16.8973 3.03833 16.7974 3.08646 16.7063C3.1346 16.6152 3.20076 16.5348 3.28092 16.4701C5.78018 14.545 8.84622 13.5011 12.0009 13.5011C15.1556 13.5011 18.2217 14.545 20.7209 16.4701C20.8011 16.5348 20.8672 16.6152 20.9154 16.7063C20.9635 16.7974 20.9926 16.8973 21.0009 17.0001C21.0026 17.091 20.9857 17.1814 20.9514 17.2656C20.917 17.3499 20.8658 17.4262 20.8009 17.4901Z" fill="#051725"/>
</svg>