<svg xmlns="http://www.w3.org/2000/svg" width="24" height="24" viewBox="0 0 24 24" fill="none">
  <path d="M7 23C6.45 23 5.97933 22.8043 5.588 22.413C5.19667 22.0217 5.00067 21.5507 5 21V3C5 2.45 5.196 1.97933 5.588 1.588C5.98 1.19667 6.45067 1.00067 7 1H17C17.55 1 18.021 1.196 18.413 1.588C18.805 1.98 19.0007 2.45067 19 3V6.1C19.3 6.21667 19.5417 6.4 19.725 6.65C19.9083 6.9 20 7.18333 20 7.5V9.5C20 9.81667 19.9083 10.1 19.725 10.35C19.5417 10.6 19.3 10.7833 19 10.9V21C19 21.55 18.8043 22.021 18.413 22.413C18.0217 22.805 17.5507 23.0007 17 23H7ZM7 21H17V3H7V21ZM12.713 5.712C12.9043 5.52067 13 5.28333 13 5C13 4.71667 12.904 4.47933 12.712 4.288C12.52 4.09667 12.2827 4.00067 12 4C11.7173 3.99933 11.48 4.09533 11.288 4.288C11.096 4.48067 11 4.718 11 5C11 5.282 11.096 5.51967 11.288 5.713C11.48 5.90633 11.7173 6.002 12 6C12.2827 5.998 12.5203 5.902 12.713 5.712Z" fill="#91D200"/>
</svg>