<svg width="64" height="64" viewBox="0 0 64 64" fill="none" xmlns="http://www.w3.org/2000/svg">
<path d="M45.3332 56.0001L50.1332 60.7201C51.4666 62.0534 53.3332 60.9868 53.3332 59.4134V48.0001L60.7999 38.9334C61.0971 38.5372 61.278 38.0661 61.3225 37.5729C61.367 37.0797 61.2732 36.5838 61.0517 36.1408C60.8302 35.6979 60.4898 35.3254 60.0685 35.065C59.6473 34.8047 59.1618 34.6667 58.6666 34.6667H39.9999C37.8666 34.6667 36.5332 37.3334 37.8666 38.9334L45.3332 48.0001V56.0001ZM39.9999 53.3334H5.33325V45.3334C5.33325 38.1334 19.4666 34.6667 26.6666 34.6667C28.2666 34.6667 30.1333 34.9334 32.2666 35.2001C31.7333 36.8001 31.9999 38.6667 32.5332 40.2668C30.6666 40.0001 28.5333 39.7334 26.6666 39.7334C18.6666 39.7334 10.3999 43.7334 10.3999 45.3334V48.2668H38.6666L39.9999 49.8668V53.3334ZM26.6666 10.6667C20.7999 10.6667 15.9999 15.4667 15.9999 21.3334C15.9999 27.2001 20.7999 32.0001 26.6666 32.0001C32.5333 32.0001 37.3333 27.2001 37.3333 21.3334C37.3333 15.4667 32.5333 10.6667 26.6666 10.6667ZM26.6666 26.6667C23.7333 26.6667 21.3333 24.2667 21.3333 21.3334C21.3333 18.4001 23.7333 16.0001 26.6666 16.0001C29.5999 16.0001 31.9999 18.4001 31.9999 21.3334C31.9999 24.2667 29.5999 26.6667 26.6666 26.6667Z" fill="#334A00"/>
</svg>
