<svg xmlns="http://www.w3.org/2000/svg" width="24" height="49" viewBox="0 0 24 49" fill="none">
  <path d="M4.48002 17.1127C4.14418 23.4544 5.85254 29.7754 9.30424 35.1169L15.3147 33.5064C16.0524 33.3087 16.8352 33.5528 17.3214 34.1107C18.8913 35.8715 20.7871 37.428 22.9349 38.668C23.8875 39.218 24.2169 40.4474 23.6669 41.4L20.1769 47.4449C19.6269 48.3975 18.3975 48.7269 17.4449 48.1769C1.18091 38.7869 -4.39 17.996 5 1.73205C5.55 0.779423 6.77942 0.45 7.73205 1L13.7942 4.5C14.7469 5.05 15.0763 6.27942 14.5263 7.23205C13.2763 9.39711 12.4227 11.6756 11.9435 13.9855C11.7841 14.7017 11.2555 15.2972 10.4905 15.5022L4.48002 17.1127Z" fill="#000"/>
</svg>