<svg xmlns="http://www.w3.org/2000/svg" width="24" height="24" viewBox="0 0 24 24" fill="none">
  <path d="M16.5 9H21C21.8272 9 22.5 8.32725 22.5 7.5V3C22.5 2.1735 21.8272 1.5 21 1.5H16.5C15.6727 1.5 15 2.1735 15 3V4.5H8.25C6.18225 4.5 4.5 6.18225 4.5 8.25H3C2.17275 8.25 1.5 8.9235 1.5 9.75V14.25C1.5 15.0773 2.17275 15.75 3 15.75H4.5C4.5 17.8177 6.18225 19.5 8.25 19.5H15V21C15 21.8272 15.6727 22.5 16.5 22.5H21C21.8272 22.5 22.5 21.8272 22.5 21V16.5C22.5 15.6735 21.8272 15 21 15H16.5C15.6727 15 15 15.6735 15 16.5V18H8.25C7.0095 18 6 16.9905 6 15.75H7.5C8.32725 15.75 9 15.0773 9 14.25V9.75C9 8.9235 8.32725 8.25 7.5 8.25H6C6 7.0095 7.0095 6 8.25 6H15V7.5C15 8.32725 15.6727 9 16.5 9ZM16.5 16.5H21V21H16.5V16.5ZM7.5 9.75V14.25H3L2.99925 9.75H7.5ZM16.5 3H21V7.5H16.5V3Z" fill="#91D200"/>
</svg>