<svg xmlns="http://www.w3.org/2000/svg" width="48" height="48" viewBox="0 0 48 48" fill="none">
  <path d="M7.5 4.50001C6.30653 4.50001 5.16193 4.97411 4.31802 5.81803C3.47411 6.66194 3 7.80653 3 9.00001V18C2.99921 20.8675 3.91148 23.6607 5.60462 25.975C7.29776 28.2892 9.68381 30.0043 12.417 30.8715C12.1384 29.5999 11.9986 28.3018 12 27C12 23.73 12.873 20.6625 14.397 18.018L10.9395 14.5605C10.6663 14.2776 10.5151 13.8987 10.5185 13.5054C10.5219 13.1121 10.6797 12.7359 10.9578 12.4578C11.2359 12.1797 11.6121 12.0219 12.0054 12.0185C12.3987 12.0151 12.7776 12.1663 13.0605 12.4395L16.1385 15.5175C18.8477 12.245 22.6271 10.0363 26.808 9.28201C25.542 7.78203 23.9635 6.57686 22.1829 5.75084C20.4024 4.92482 18.4628 4.49792 16.5 4.50001H7.5ZM28.6275 12.0615C26.6131 12.2448 24.6568 12.8344 22.8767 13.7948C21.0965 14.7551 19.5294 16.0662 18.27 17.649C16.1483 20.3034 14.9948 23.6018 15 27C14.9972 30.4607 16.1936 33.8155 18.3855 36.4935L13.9395 40.9395C13.7962 41.0779 13.682 41.2434 13.6033 41.4264C13.5247 41.6094 13.4834 41.8062 13.4816 42.0054C13.4799 42.2046 13.5178 42.4021 13.5933 42.5864C13.6687 42.7708 13.7801 42.9383 13.9209 43.0791C14.0617 43.2199 14.2292 43.3313 14.4136 43.4067C14.5979 43.4822 14.7954 43.5201 14.9946 43.5184C15.1938 43.5167 15.3906 43.4753 15.5736 43.3967C15.7566 43.318 15.9221 43.2038 16.0605 43.0605L20.5065 38.6145C23.1833 40.8086 26.5389 42.0052 30 42C38.2845 42 45 35.2845 45 27V16.5C45 15.3065 44.5259 14.1619 43.682 13.318C42.8381 12.4741 41.6935 12 40.5 12H30C29.537 12 29.0795 12.0205 28.6275 12.0615ZM32.5605 24.4395C32.8417 24.7208 32.9997 25.1023 32.9997 25.5C32.9997 25.8978 32.8417 26.2792 32.5605 26.5605L22.641 36.48C21.8481 35.8645 21.1355 35.1519 20.52 34.359L30.4395 24.4395C30.7208 24.1583 31.1023 24.0003 31.5 24.0003C31.8977 24.0003 32.2792 24.1583 32.5605 24.4395Z" fill="#91D200"/>
</svg>