<svg xmlns="http://www.w3.org/2000/svg" width="32" height="32" viewBox="0 0 32 32" fill="none">
  <rect width="32" height="32" rx="8" fill="#91D200"/>
  <path d="M10.4 17.4005C9.62678 17.4005 9 16.7737 9 16.0005C9 15.2273 9.62678 14.6005 10.4 14.6005H14.6H17.4H21.6C22.3732 14.6005 23 15.2273 23 16.0005C23 16.7737 22.3732 17.4005 21.6 17.4005H17.4H14.6H10.4Z" fill="#F4F6F2"/>
  <path d="M17.4 21.6C17.4 22.3732 16.7732 23 16 23C15.2268 23 14.6 22.3732 14.6 21.6L14.6 17.4005V14.6005V10.4C14.6 9.62678 15.2268 9 16 9C16.7732 9 17.4 9.62678 17.4 10.4V14.6005V17.4005V21.6Z" fill="#F4F6F2"/>
</svg>