<svg width="24" height="24" viewBox="0 0 24 24" fill="none" xmlns="http://www.w3.org/2000/svg">
<path fill-rule="evenodd" clip-rule="evenodd" d="M6.7779 2.025C6.91033 1.99482 7.04753 1.99193 7.18112 2.01652C7.3147 2.0411 7.44188 2.09265 7.55489 2.168C8.74589 2.962 10.3969 3.452 12.2729 3.726C14.1349 3.999 16.1329 4.048 17.9579 4.022C18.4695 4.01385 18.9649 4.2011 19.3432 4.54559C19.7216 4.89008 19.9542 5.36588 19.9939 5.876L19.9999 6.029V8.97C19.9995 9.23642 19.9462 9.50011 19.843 9.74574C19.7398 9.99136 19.5889 10.214 19.3988 10.4008C19.2088 10.5875 18.9836 10.7346 18.7362 10.8336C18.4889 10.9325 18.2243 10.9812 17.9579 10.977C17.5259 10.9707 17.0939 10.9693 16.6619 10.973L15.9999 10.983V21C15.9999 21.2449 15.9099 21.4813 15.7472 21.6644C15.5844 21.8474 15.3601 21.9643 15.1169 21.993L14.9999 22H11.9999C11.755 22 11.5186 21.91 11.3355 21.7473C11.1525 21.5845 11.0356 21.3603 11.0069 21.117L10.9999 21V11.502C9.6519 11.793 8.46789 12.223 7.55489 12.832C7.44188 12.9074 7.3147 12.9589 7.18112 12.9835C7.04753 13.0081 6.91033 13.0052 6.7779 12.975C6.3869 12.885 6.2189 12.685 6.0839 12.427L5.93689 12.113L5.8799 11.987L5.7539 11.685C5.67943 11.4961 5.61073 11.3051 5.5479 11.112C5.17882 9.94375 4.99394 8.72515 4.9999 7.5C4.9999 5.974 5.2709 4.745 5.5479 3.888C5.6409 3.602 5.73389 3.357 5.81789 3.156L5.93689 2.886C6.11589 2.5 6.3269 2.128 6.7779 2.025ZM13.9999 11.083C13.6646 11.109 13.3312 11.141 12.9999 11.179V20H13.9999V11.083ZM7.4779 4.422C7.15379 5.41555 6.99238 6.45495 6.9999 7.5C6.9999 8.838 7.2469 9.89 7.4779 10.578C8.8319 9.916 10.4039 9.526 11.9829 9.295C13.9979 9 16.1309 8.973 17.9999 9L18.0029 8.636L17.9999 6C16.1299 6.027 13.9989 6 11.9829 5.705C10.4029 5.475 8.8319 5.084 7.4779 4.422Z" fill="#F7F7F7"/>
</svg>
