<svg xmlns="http://www.w3.org/2000/svg" width="24" height="24" viewBox="0 0 24 24" fill="none">
  <path d="M12 12.475L13.9 13.625C14.0833 13.7417 14.2667 13.7377 14.45 13.613C14.6333 13.4883 14.7 13.3173 14.65 13.1L14.15 10.925L15.85 9.45C16.0167 9.3 16.0667 9.121 16 8.913C15.9333 8.705 15.7833 8.59233 15.55 8.575L13.325 8.4L12.45 6.35C12.3667 6.15 12.2167 6.05 12 6.05C11.7833 6.05 11.6333 6.15 11.55 6.35L10.675 8.4L8.45 8.575C8.21667 8.59167 8.06667 8.70433 8 8.913C7.93333 9.12167 7.98333 9.30067 8.15 9.45L9.85 10.925L9.35 13.1C9.3 13.3167 9.36667 13.4877 9.55 13.613C9.73334 13.7383 9.91667 13.7423 10.1 13.625L12 12.475ZM6 18L3.7 20.3C3.38334 20.6167 3.02067 20.6877 2.612 20.513C2.20333 20.3383 1.99933 20.0257 2 19.575V4C2 3.45 2.196 2.97933 2.588 2.588C2.98 2.19667 3.45067 2.00067 4 2H20C20.55 2 21.021 2.196 21.413 2.588C21.805 2.98 22.0007 3.45067 22 4V16C22 16.55 21.8043 17.021 21.413 17.413C21.0217 17.805 20.5507 18.0007 20 18H6ZM5.15 16H20V4H4V17.125L5.15 16Z" fill="#91D200"/>
</svg>