<svg width="32" height="32" viewBox="0 0 32 32" fill="none" xmlns="http://www.w3.org/2000/svg">
<path d="M27.0508 0.170382L27.7107 0.266121C28.7364 0.428537 29.8852 0.700369 30.5913 1.40645C31.2973 2.11253 31.5709 3.26312 31.7333 4.2889L31.829 4.94711C32.0444 6.50288 32.1008 8.54248 31.7333 10.806C31.0084 15.2733 28.6304 20.6023 22.6589 24.731C22.6328 25.0363 22.6231 25.3428 22.6299 25.6491L22.6589 26.5774C22.676 27.1963 22.6658 27.8135 22.4948 28.4068C22.17 29.5351 21.0126 30.2788 19.9305 30.8122L19.4005 31.0635L18.7167 31.3644L18.25 31.5525C17.0413 32.0141 15.583 32.3372 14.6291 31.3815C14.1966 30.949 13.9966 30.3609 13.8359 29.7728L13.7572 29.4787C13.4837 28.441 13.1743 27.41 12.7879 26.4116C12.6812 26.5413 12.5683 26.6657 12.4494 26.7843C11.5177 27.7144 10.2543 28.1828 8.99097 28.5452L8.15158 28.776L7.31389 28.9983L6.49672 29.2034L5.75819 29.3744L4.87435 29.5625L4.32216 29.6702C4.04677 29.7212 3.7631 29.7044 3.49563 29.6213C3.22816 29.5382 2.98492 29.3913 2.78688 29.1933C2.58883 28.9952 2.44194 28.752 2.35886 28.4845C2.27578 28.217 2.25902 27.9333 2.31001 27.6579L2.49977 26.7159L2.7203 25.7278L2.93229 24.8558L3.31694 23.4112C3.69817 22.0093 4.16146 20.5646 5.19746 19.5303L5.3667 19.3679L4.06231 18.8995L2.75107 18.4481C1.98348 18.1951 1.17657 17.9284 0.619251 17.371C-0.399648 16.3521 0.0328713 14.7621 0.540611 13.5124L0.824398 12.8508L1.05861 12.3362C1.60054 11.1839 2.36984 9.85719 3.59389 9.505C4.18711 9.33404 4.80255 9.32378 5.42312 9.33917L6.35141 9.36994C6.65913 9.37792 6.96514 9.36823 7.26945 9.34088C11.3963 3.36911 16.7267 0.991008 21.1938 0.266121C23.1309 -0.0530587 25.1043 -0.0853178 27.0508 0.170382ZM21.7409 3.64095C17.9833 4.25129 13.417 6.26353 9.8543 11.6232C9.42178 12.2729 8.6918 12.5824 7.94814 12.7003C7.52759 12.7687 7.10362 12.7858 6.67794 12.7858L5.4009 12.767C5.18891 12.7659 4.97635 12.7693 4.76323 12.7772C4.24352 13.4679 3.88109 14.2886 3.60927 15.1041L6.17362 16.0358L7.22842 16.4342C9.1568 17.1898 11.0236 18.1045 12.4597 19.5406C14.8787 21.9597 16.1079 25.1243 16.9969 28.3572C17.7764 28.0836 18.5594 27.7349 19.2227 27.2374L19.233 26.5997L19.2142 25.3243C19.2142 24.9003 19.2312 24.4763 19.2996 24.0523C19.4159 23.3086 19.727 22.5786 20.3767 22.1461C25.7361 18.5832 27.7483 14.0167 28.3586 10.259C28.6663 8.36126 28.615 6.66529 28.4424 5.41555C28.3759 4.89709 28.2655 4.38521 28.1124 3.88542C27.6126 3.7329 27.1008 3.62309 26.5824 3.55717C24.973 3.34861 23.3418 3.3757 21.7409 3.64095ZM7.61307 21.9477C7.01472 22.6709 6.73606 23.6198 6.51211 24.5601L6.32748 25.3602L6.23345 25.7466L7.41989 25.4679C8.36015 25.2456 9.31066 24.9635 10.0321 24.3652C10.3527 24.0444 10.5327 23.6094 10.5325 23.1559C10.5323 22.7023 10.352 22.2675 10.0312 21.9469C9.71046 21.6263 9.27547 21.4463 8.82198 21.4465C8.36848 21.4466 7.93362 21.6269 7.61307 21.9477ZM17.2841 9.86061C17.6015 9.54303 17.9784 9.2911 18.3932 9.11919C18.808 8.94727 19.2526 8.85875 19.7016 8.85867C20.1506 8.85859 20.5953 8.94696 21.0101 9.11872C21.425 9.29049 21.802 9.54229 22.1196 9.85975C22.4371 10.1772 22.689 10.5541 22.8609 10.9689C23.0328 11.3838 23.1214 11.8284 23.1214 12.2774C23.1215 12.7265 23.0332 13.1711 22.8614 13.586C22.6896 14.0009 22.4379 14.3779 22.1204 14.6955C21.4791 15.3368 20.6092 15.6971 19.7022 15.6971C18.7952 15.6971 17.9254 15.3368 17.2841 14.6955C16.6427 14.0541 16.2824 13.1842 16.2824 12.2772C16.2824 11.3701 16.6427 10.5003 17.2841 9.8589V9.86061Z" fill="#051725"/>
</svg>
