<svg xmlns="http://www.w3.org/2000/svg" width="24" height="24" viewBox="0 0 24 24" fill="none">
  <path fill-rule="evenodd" clip-rule="evenodd" d="M7.90702 4.25595C7.77577 3.74278 7.51104 3.27349 7.13971 2.89575C6.76838 2.51801 6.30369 2.24528 5.79284 2.10527C5.28199 1.96526 4.74318 1.96295 4.23115 2.09859C3.71912 2.23422 3.25212 2.50296 2.87757 2.87751C2.50302 3.25205 2.23428 3.71906 2.09865 4.23109C1.96302 4.74312 1.96532 5.28193 2.10533 5.79278C2.24534 6.30363 2.51807 6.76832 2.89581 7.13965C3.27355 7.51098 3.74284 7.77571 4.25602 7.90695C4.25257 7.93784 4.25057 7.96888 4.25002 7.99995V16C4.25002 16.032 4.25202 16.063 4.25602 16.093C3.74284 16.2242 3.27355 16.4889 2.89581 16.8603C2.51807 17.2316 2.24534 17.6963 2.10533 18.2071C1.96532 18.718 1.96302 19.2568 2.09865 19.7688C2.23428 20.2808 2.50302 20.7479 2.87757 21.1224C3.25212 21.497 3.71912 21.7657 4.23115 21.9013C4.74318 22.037 5.28199 22.0346 5.79284 21.8946C6.30369 21.7546 6.76838 21.4819 7.13971 21.1042C7.51104 20.7264 7.77577 20.2571 7.90702 19.744C7.93702 19.748 7.96802 19.75 8.00002 19.75H16C16.0311 19.7494 16.0621 19.7474 16.093 19.744C16.2243 20.2571 16.489 20.7264 16.8603 21.1042C17.2316 21.4819 17.6963 21.7546 18.2072 21.8946C18.718 22.0346 19.2568 22.037 19.7689 21.9013C20.2809 21.7657 20.7479 21.497 21.1225 21.1224C21.497 20.7479 21.7657 20.2808 21.9014 19.7688C22.037 19.2568 22.0347 18.718 21.8947 18.2071C21.7547 17.6963 21.482 17.2316 21.1042 16.8603C20.7265 16.4889 20.2572 16.2242 19.744 16.093C19.7475 16.0621 19.7495 16.031 19.75 16V7.99995C19.7495 7.96888 19.7475 7.93784 19.744 7.90695C20.2572 7.77571 20.7265 7.51098 21.1042 7.13965C21.482 6.76832 21.7547 6.30363 21.8947 5.79278C22.0347 5.28193 22.037 4.74312 21.9014 4.23109C21.7657 3.71906 21.497 3.25205 21.1225 2.87751C20.7479 2.50296 20.2809 2.23422 19.7689 2.09859C19.2568 1.96295 18.718 1.96526 18.2072 2.10527C17.6963 2.24528 17.2316 2.51801 16.8603 2.89575C16.489 3.27349 16.2243 3.74278 16.093 4.25595C16.0621 4.25251 16.0311 4.25051 16 4.24995H8.00002C7.96894 4.25051 7.93791 4.25251 7.90702 4.25595ZM5.74402 7.90695C5.74802 7.93695 5.75002 7.96795 5.75002 7.99995V16C5.74946 16.031 5.74746 16.0621 5.74402 16.093C6.26542 16.2263 6.74135 16.4975 7.12191 16.8781C7.50247 17.2586 7.77365 17.7345 7.90702 18.256C7.93791 18.2525 7.96894 18.2505 8.00002 18.25H16C16.0311 18.2505 16.0621 18.2525 16.093 18.256C16.2264 17.7345 16.4976 17.2586 16.8781 16.8781C17.2587 16.4975 17.7346 16.2263 18.256 16.093C18.2526 16.0621 18.2506 16.031 18.25 16V7.99995C18.25 7.96795 18.252 7.93695 18.256 7.90695C17.7346 7.77359 17.2587 7.50241 16.8781 7.12185C16.4976 6.74129 16.2264 6.26536 16.093 5.74395C16.0621 5.7474 16.0311 5.7494 16 5.74995H8.00002C7.96894 5.7494 7.93791 5.7474 7.90702 5.74395C7.77365 6.26536 7.50247 6.74129 7.12191 7.12185C6.74135 7.50241 6.26542 7.77359 5.74402 7.90695Z" fill="#91D200"/>
</svg>