<svg xmlns="http://www.w3.org/2000/svg" width="24" height="24" viewBox="0 0 24 24" fill="none">
  <path d="M14.5 11H19.5C20.33 11 21 10.33 21 9.5V4.5C21 3.67 20.33 3 19.5 3H14.5C13.67 3 13 3.67 13 4.5V9.5C13 10.33 13.67 11 14.5 11ZM15 5H19V9H15V5ZM16.5 19.5C16.97 19.5 17.41 19.4 17.82 19.24L19.54 20.96L20.95 19.55L19.38 17.98C19.77 17.42 19.99 16.74 19.99 16.01C19.99 14.08 18.42 12.51 16.49 12.51C14.56 12.51 12.99 14.08 12.99 16.01C12.99 17.94 14.56 19.51 16.49 19.51L16.5 19.5ZM16.5 14.5C17.33 14.5 18 15.17 18 16C18 16.83 17.33 17.5 16.5 17.5C15.67 17.5 15 16.83 15 16C15 15.17 15.67 14.5 16.5 14.5ZM9.5 3H4.5C3.67 3 3 3.67 3 4.5V19.5C3 20.33 3.67 21 4.5 21H9.5C10.33 21 11 20.33 11 19.5V4.5C11 3.67 10.33 3 9.5 3ZM9 19H5V5H9V19Z" fill="#051725"/>
</svg>