<svg xmlns="http://www.w3.org/2000/svg" width="64" height="64" viewBox="0 0 64 64" fill="none">
  <path d="M24 50.6667V34.6667C24 33.9595 23.719 33.2812 23.219 32.7811C22.7189 32.281 22.0406 32.0001 21.3333 32.0001H10.6667C9.95942 32.0001 9.28115 32.281 8.78105 32.7811C8.28095 33.2812 8 33.9595 8 34.6667V50.6667C8 51.374 8.28095 52.0523 8.78105 52.5524C9.28115 53.0525 9.95942 53.3334 10.6667 53.3334M24 50.6667C24 51.374 23.719 52.0523 23.219 52.5524C22.7189 53.0525 22.0406 53.3334 21.3333 53.3334H10.6667M24 50.6667C24 51.374 24.281 52.0523 24.781 52.5524C25.2811 53.0525 25.9594 53.3334 26.6667 53.3334H37.3333C38.0406 53.3334 38.7189 53.0525 39.219 52.5524C39.719 52.0523 40 51.374 40 50.6667M24 50.6667V13.3334C24 12.6262 24.281 11.9479 24.781 11.4478C25.2811 10.9477 25.9594 10.6667 26.6667 10.6667H37.3333C38.0406 10.6667 38.7189 10.9477 39.219 11.4478C39.719 11.9479 40 12.6262 40 13.3334V50.6667M10.6667 53.3334H48M40 50.6667C40 51.374 40.281 52.0523 40.7811 52.5524C41.2811 53.0525 41.9594 53.3334 42.6667 53.3334H53.3333C54.0406 53.3334 54.7189 53.0525 55.219 52.5524C55.7191 52.0523 56 51.374 56 50.6667V24.0001C56 23.2928 55.7191 22.6146 55.219 22.1145C54.7189 21.6144 54.0406 21.3334 53.3333 21.3334H42.6667C41.9594 21.3334 41.2811 21.6144 40.7811 22.1145C40.281 22.6146 40 23.2928 40 24.0001V50.6667Z" stroke="#023554" stroke-width="5" stroke-linecap="round" stroke-linejoin="round"/>
</svg>