<svg width="64" height="64" viewBox="0 0 64 64" fill="none" xmlns="http://www.w3.org/2000/svg">
<g clip-path="url(#clip0_7_3703)">
<path d="M60.9093 26.7867L56.4 26.2133C56.2722 26.199 56.1518 26.1466 56.0543 26.0629C55.9568 25.9792 55.8868 25.8681 55.8533 25.744C55.2494 23.6405 54.3726 21.6252 53.2453 19.7493C53.1742 19.6408 53.1363 19.5138 53.1363 19.384C53.1363 19.2542 53.1742 19.1272 53.2453 19.0187L56.0613 15.4187C56.4555 14.9132 56.6495 14.2801 56.6062 13.6405C56.5629 13.0009 56.2854 12.3998 55.8266 11.952L52.0986 7.93868C51.6514 7.48867 51.0558 7.21671 50.4228 7.17353C49.7899 7.13035 49.1628 7.3189 48.6586 7.70401L44.9546 10.52C44.8463 10.5906 44.7199 10.6282 44.5906 10.6282C44.4614 10.6282 44.3349 10.5906 44.2266 10.52C42.3514 9.38975 40.3348 8.51279 38.2293 7.91201C38.1052 7.87854 37.9941 7.8085 37.9104 7.71099C37.8267 7.61349 37.7743 7.49305 37.76 7.36534L37.2666 3.01334C37.1882 2.378 36.8794 1.79353 36.3987 1.3708C35.9179 0.948075 35.2988 0.7165 34.6586 0.72001H29.1573C28.5176 0.717155 27.8991 0.949025 27.4189 1.37169C26.9387 1.79436 26.6303 2.37846 26.552 3.01334L26.0053 7.52001C25.9915 7.64819 25.9393 7.76922 25.8556 7.86724C25.7718 7.96526 25.6604 8.0357 25.536 8.06934C23.4305 8.67012 21.4138 9.54708 19.5386 10.6773C19.4303 10.7479 19.3039 10.7855 19.1746 10.7855C19.0454 10.7855 18.9189 10.7479 18.8106 10.6773L15.184 7.70401C14.6798 7.3189 14.0527 7.13035 13.4198 7.17353C12.7868 7.21671 12.1912 7.48867 11.744 7.93868L7.86129 11.824C7.41128 12.2712 7.13932 12.8669 7.09614 13.4998C7.05297 14.1328 7.24152 14.7598 7.62663 15.264L10.4426 18.9653C10.5138 19.0739 10.5516 19.2009 10.5516 19.3307C10.5516 19.4605 10.5138 19.5874 10.4426 19.696C9.31533 21.5718 8.43855 23.5872 7.83463 25.6907C7.80116 25.8147 7.73111 25.9259 7.63361 26.0096C7.53611 26.0933 7.41567 26.1457 7.28796 26.16L2.93329 26.7867C2.29771 26.8633 1.7126 27.1713 1.28961 27.6518C0.866613 28.1324 0.635355 28.7518 0.63996 29.392V34.92C0.635355 35.5602 0.866613 36.1796 1.28961 36.6602C1.7126 37.1407 2.29771 37.4487 2.93329 37.5253L7.44263 38.1013C7.57047 38.115 7.69125 38.1668 7.78924 38.25C7.88722 38.3332 7.95786 38.444 7.99196 38.568C8.59196 40.6747 9.46663 42.6907 10.5973 44.5653C10.6684 44.6739 10.7063 44.8009 10.7063 44.9307C10.7063 45.0605 10.6684 45.1874 10.5973 45.296L7.62663 48.736C6.82663 49.776 6.92796 51.2533 7.86129 52.176L11.744 56.0613C12.6693 56.9947 14.144 57.096 15.184 56.296L18.888 53.48C18.9965 53.4089 19.1235 53.371 19.2533 53.371C19.3831 53.371 19.5101 53.4089 19.6186 53.48C21.493 54.6101 23.5087 55.487 25.6133 56.088C25.7357 56.1246 25.845 56.1956 25.9282 56.2925C26.0114 56.3894 26.065 56.5082 26.0826 56.6347L26.7093 60.9867C26.8693 62.304 27.9893 63.2907 29.3146 63.28H34.8426C35.4823 63.2829 36.1008 63.051 36.581 62.6283C37.0612 62.2057 37.3696 61.6216 37.448 60.9867L38.0213 56.48C38.0351 56.3518 38.0873 56.2308 38.171 56.1328C38.2548 56.0348 38.3662 55.9643 38.4906 55.9307C40.5961 55.3299 42.6127 54.4529 44.488 53.3227C44.5962 53.2521 44.7227 53.2145 44.852 53.2145C44.9812 53.2145 45.1077 53.2521 45.216 53.3227L48.84 56.1387C49.88 56.9387 51.3573 56.84 52.28 55.904L56.1653 52.0213C57.0986 51.096 57.2 49.6213 56.4 48.5813L53.4026 45.0347C53.3315 44.9261 53.2936 44.7991 53.2936 44.6693C53.2936 44.5396 53.3315 44.4126 53.4026 44.304C54.5317 42.4295 55.4078 40.4138 56.008 38.3093C56.0416 38.1849 56.112 38.0735 56.2101 37.9897C56.3081 37.906 56.4291 37.8538 56.5573 37.84L61.064 37.2667C61.6998 37.1889 62.2849 36.8803 62.7082 36.3995C63.1314 35.9187 63.3634 35.2992 63.36 34.6587V29.2373C63.322 28.5995 63.0517 27.9977 62.6001 27.5457C62.1486 27.0936 61.5471 26.8227 60.9093 26.784M31.9226 50.2453C17.8746 50.2453 9.09596 35.04 16.12 22.8747C23.1413 10.7093 40.7013 10.7093 47.7253 22.8747C49.3274 25.6485 50.171 28.7953 50.1712 31.9985C50.1715 35.2018 49.3284 38.3487 47.7268 41.1228C46.1251 43.8969 43.8214 46.2004 41.0471 47.8018C38.2729 49.4032 35.1259 50.2459 31.9226 50.2453Z" fill="#91D200"/>
<path d="M41.9572 26.1867L36.5866 30.96C36.4677 31.0526 36.3213 31.1028 36.1706 31.1028C36.0199 31.1028 35.8735 31.0526 35.7546 30.96L32.2079 28.352C31.3518 27.7781 30.3452 27.4701 29.3146 27.4667C28.2435 27.5036 27.2156 27.8978 26.3946 28.5867L19.7732 34.4267C19.3777 34.7771 19.098 35.2394 18.9711 35.7524C18.8442 36.2653 18.8761 36.8047 19.0626 37.2991C19.2491 37.7935 19.5814 38.2196 20.0154 38.521C20.4495 38.8224 20.9648 38.9848 21.4932 38.9867C22.1305 38.9794 22.7432 38.7394 23.2159 38.312L29.0559 33.0987C29.1687 33.0041 29.3113 32.9522 29.4586 32.9522C29.6058 32.9522 29.7484 33.0041 29.8612 33.0987L33.4346 35.704C34.2932 36.312 35.3279 36.6214 36.3786 36.5894C37.4539 36.5742 38.4889 36.1772 39.2986 35.4694L45.4239 30.0214C45.7024 29.8007 45.9329 29.5255 46.1012 29.2125C46.2696 28.8996 46.3721 28.5555 46.4027 28.2015C46.4333 27.8475 46.3912 27.491 46.279 27.1538C46.1668 26.8167 45.987 26.506 45.7504 26.2408C45.5138 25.9757 45.2256 25.7617 44.9033 25.612C44.5811 25.4622 44.2316 25.38 43.8764 25.3701C43.5212 25.3603 43.1678 25.4232 42.8377 25.5549C42.5077 25.6866 42.2081 25.8844 41.9572 26.136V26.1867Z" fill="#91D200"/>
</g>
<defs>
<clipPath id="clip0_7_3703">
<rect width="64" height="64" fill="white"/>
</clipPath>
</defs>
</svg>
