<svg xmlns="http://www.w3.org/2000/svg" width="24" height="24" viewBox="0 0 24 24" fill="none">
  <path fill-rule="evenodd" clip-rule="evenodd" d="M4.24937 8.6751C3.58533 8.53965 2.97039 8.22683 2.4699 7.76987C1.96941 7.31292 1.60208 6.72891 1.40692 6.0799C1.21177 5.43089 1.1961 4.74114 1.36157 4.08393C1.52704 3.42673 1.86747 2.82664 2.34669 2.34742C2.8259 1.86821 3.426 1.52777 4.0832 1.3623C4.7404 1.19683 5.43016 1.21251 6.07917 1.40766C6.72818 1.60281 7.31219 1.97015 7.76914 2.47063C8.2261 2.97112 8.53892 3.58606 8.67437 4.2501H15.3244C15.4598 3.58606 15.7726 2.97112 16.2296 2.47063C16.6865 1.97015 17.2706 1.60281 17.9196 1.40766C18.5686 1.21251 19.2583 1.19683 19.9155 1.3623C20.5727 1.52777 21.1728 1.86821 21.652 2.34742C22.1313 2.82664 22.4717 3.42673 22.6372 4.08393C22.8026 4.74114 22.787 5.43089 22.5918 6.0799C22.3967 6.72891 22.0293 7.31292 21.5288 7.76987C21.0283 8.22683 20.4134 8.53965 19.7494 8.6751V15.3251C20.4134 15.4605 21.0283 15.7734 21.5288 16.2303C22.0293 16.6873 22.3967 17.2713 22.5918 17.9203C22.787 18.5693 22.8026 19.2591 22.6372 19.9163C22.4717 20.5735 22.1313 21.1736 21.652 21.6528C21.1728 22.132 20.5727 22.4724 19.9155 22.6379C19.2583 22.8034 18.5686 22.7877 17.9196 22.5925C17.2706 22.3974 16.6865 22.0301 16.2296 21.5296C15.7726 21.0291 15.4598 20.4141 15.3244 19.7501H8.67437C8.53892 20.4141 8.2261 21.0291 7.76914 21.5296C7.31219 22.0301 6.72818 22.3974 6.07917 22.5925C5.43016 22.7877 4.7404 22.8034 4.0832 22.6379C3.426 22.4724 2.8259 22.132 2.34669 21.6528C1.86747 21.1736 1.52704 20.5735 1.36157 19.9163C1.1961 19.2591 1.21177 18.5693 1.40692 17.9203C1.60208 17.2713 1.96941 16.6873 2.4699 16.2303C2.97039 15.7734 3.58533 15.4605 4.24937 15.3251V8.6751ZM2.74937 5.0001C2.74937 4.70463 2.80757 4.41204 2.92064 4.13906C3.03371 3.86608 3.19945 3.61804 3.40838 3.40911C3.61731 3.20018 3.86535 3.03444 4.13833 2.92137C4.41131 2.8083 4.70389 2.7501 4.99937 2.7501C5.29484 2.7501 5.58742 2.8083 5.86041 2.92137C6.13339 3.03444 6.38143 3.20018 6.59036 3.40911C6.79929 3.61804 6.96502 3.86608 7.0781 4.13906C7.19117 4.41204 7.24937 4.70463 7.24937 5.0001C7.24937 5.59684 7.01231 6.16913 6.59036 6.59109C6.1684 7.01305 5.5961 7.2501 4.99937 7.2501C4.40263 7.2501 3.83033 7.01305 3.40838 6.59109C2.98642 6.16913 2.74937 5.59684 2.74937 5.0001ZM5.74937 15.3251V8.6751C6.47004 8.52812 7.13157 8.17247 7.65165 7.65239C8.17173 7.13231 8.52739 6.47077 8.67437 5.7501H15.3244C15.4726 6.47023 15.8286 7.13111 16.3485 7.65099C16.8684 8.17086 17.5292 8.52692 18.2494 8.6751V15.3251C17.5292 15.4733 16.8684 15.8293 16.3485 16.3492C15.8286 16.8691 15.4726 17.53 15.3244 18.2501H8.67437C8.52618 17.53 8.17013 16.8691 7.65025 16.3492C7.13038 15.8293 6.46949 15.4733 5.74937 15.3251ZM4.99937 16.7501C4.40263 16.7501 3.83033 16.9872 3.40838 17.4091C2.98642 17.8311 2.74937 18.4034 2.74937 19.0001C2.74937 19.5968 2.98642 20.1691 3.40838 20.5911C3.83033 21.013 4.40263 21.2501 4.99937 21.2501C5.5961 21.2501 6.1684 21.013 6.59036 20.5911C7.01231 20.1691 7.24937 19.5968 7.24937 19.0001C7.24937 18.4034 7.01231 17.8311 6.59036 17.4091C6.1684 16.9872 5.5961 16.7501 4.99937 16.7501ZM21.2494 5.0001C21.2494 5.59684 21.0123 6.16913 20.5904 6.59109C20.1684 7.01305 19.5961 7.2501 18.9994 7.2501C18.4026 7.2501 17.8303 7.01305 17.4084 6.59109C16.9864 6.16913 16.7494 5.59684 16.7494 5.0001C16.7494 4.40336 16.9864 3.83107 17.4084 3.40911C17.8303 2.98715 18.4026 2.7501 18.9994 2.7501C19.5961 2.7501 20.1684 2.98715 20.5904 3.40911C21.0123 3.83107 21.2494 4.40336 21.2494 5.0001ZM16.7494 19.0001C16.7494 18.4034 16.9864 17.8311 17.4084 17.4091C17.8303 16.9872 18.4026 16.7501 18.9994 16.7501C19.5961 16.7501 20.1684 16.9872 20.5904 17.4091C21.0123 17.8311 21.2494 18.4034 21.2494 19.0001C21.2494 19.5968 21.0123 20.1691 20.5904 20.5911C20.1684 21.013 19.5961 21.2501 18.9994 21.2501C18.4026 21.2501 17.8303 21.013 17.4084 20.5911C16.9864 20.1691 16.7494 19.5968 16.7494 19.0001Z" fill="#051725"/>
</svg>