<svg xmlns="http://www.w3.org/2000/svg" width="24" height="24" viewBox="0 0 24 24" fill="none">
  <path fill-rule="evenodd" clip-rule="evenodd" d="M10.7984 3H13.1999C13.2795 3 13.3558 3.03161 13.412 3.08787C13.4683 3.14413 13.4999 3.22044 13.4999 3.3C13.4999 6.012 16.4369 7.7085 18.7859 6.351C18.8545 6.31223 18.9355 6.30199 19.0116 6.32248C19.0877 6.34296 19.1526 6.39254 19.1924 6.4605L20.3954 8.5425C20.4347 8.6112 20.4452 8.69263 20.4247 8.76904C20.4041 8.84546 20.3543 8.91067 20.2859 8.9505C17.9369 10.3065 17.9369 13.6965 20.2859 15.054C20.3539 15.0938 20.4035 15.1588 20.4239 15.2348C20.4444 15.3109 20.4342 15.3919 20.3954 15.4605L19.1924 17.5425C19.1526 17.6105 19.0877 17.66 19.0116 17.6805C18.9355 17.701 18.8545 17.6908 18.7859 17.652C16.4369 16.2945 13.4999 17.9895 13.4999 20.7C13.4999 20.7793 13.4685 20.8554 13.4126 20.9116C13.3566 20.9678 13.2807 20.9996 13.2014 21H10.7999C10.7204 21 10.644 20.9684 10.5878 20.9121C10.5315 20.8559 10.4999 20.7796 10.4999 20.7C10.4999 17.988 7.56292 16.293 5.21392 17.649C5.14521 17.6882 5.06379 17.6987 4.98738 17.6782C4.91096 17.6577 4.84574 17.6079 4.80592 17.5395L3.60592 15.4575C3.56702 15.3891 3.55655 15.3082 3.57675 15.2322C3.59695 15.1561 3.64621 15.0911 3.71392 15.051C6.06292 13.6935 6.06292 10.3035 3.71392 8.946C3.64636 8.9062 3.59706 8.84152 3.5766 8.76582C3.55613 8.69013 3.56612 8.60943 3.60442 8.541L4.80592 6.4575C4.84599 6.38939 4.91132 6.33984 4.98771 6.31962C5.06411 6.2994 5.14539 6.31014 5.21392 6.3495C7.56292 7.707 10.4999 6.0105 10.4999 3.2985C10.4999 3.1335 10.6334 3 10.7984 3ZM8.24992 3.3C8.24992 1.89 9.38992 0.75 10.7984 0.75H13.1999C14.6099 0.75 15.7499 1.89 15.7499 3.3C15.7504 3.52345 15.8095 3.74285 15.9215 3.93623C16.0334 4.12961 16.1942 4.29018 16.3878 4.40184C16.5813 4.5135 16.8008 4.57234 17.0243 4.57245C17.2477 4.57257 17.4673 4.51396 17.6609 4.4025C18.2463 4.06539 18.9415 3.97429 19.5939 4.14921C20.2463 4.32414 20.8027 4.75078 21.1409 5.3355L22.3439 7.4175C23.0474 8.637 22.6289 10.194 21.4109 10.8975C21.2172 11.0094 21.0563 11.1704 20.9445 11.3642C20.8326 11.5579 20.7737 11.7778 20.7737 12.0015C20.7737 12.2252 20.8326 12.4451 20.9445 12.6388C21.0563 12.8326 21.2172 12.9936 21.4109 13.1055C21.9956 13.4437 22.4223 14.0001 22.5972 14.6525C22.7721 15.305 22.681 16.0002 22.3439 16.5855L21.1409 18.6675C20.8027 19.2522 20.2463 19.6789 19.5939 19.8538C18.9415 20.0287 18.2463 19.9376 17.6609 19.6005C17.4673 19.489 17.2477 19.4304 17.0243 19.4305C16.8008 19.4307 16.5813 19.4895 16.3878 19.6012C16.1942 19.7128 16.0334 19.8734 15.9215 20.0668C15.8095 20.2601 15.7504 20.4796 15.7499 20.703C15.7499 22.1115 14.6099 23.253 13.2014 23.253H10.7999C10.1239 23.2526 9.47566 22.9838 8.99776 22.5056C8.51987 22.0274 8.25142 21.379 8.25142 20.703C8.25097 20.4796 8.19181 20.2601 8.07986 20.0668C7.96791 19.8734 7.80711 19.7128 7.61356 19.6012C7.42002 19.4895 7.20053 19.4307 6.97708 19.4305C6.75363 19.4304 6.53408 19.489 6.34042 19.6005C5.75507 19.9376 5.05988 20.0287 4.40744 19.8538C3.755 19.6789 3.19862 19.2522 2.86042 18.6675L1.65742 16.5855C1.3203 16.0002 1.22921 15.305 1.40413 14.6525C1.57905 14.0001 2.0057 13.4437 2.59042 13.1055C2.7838 12.9935 2.94435 12.8326 3.05595 12.6389C3.16756 12.4453 3.2263 12.2257 3.2263 12.0023C3.2263 11.7788 3.16756 11.5592 3.05595 11.3656C2.94435 11.1719 2.7838 11.011 2.59042 10.899C2.0057 10.5608 1.57905 10.0044 1.40413 9.35198C1.22921 8.69954 1.3203 8.00435 1.65742 7.419L2.85892 5.3355C3.19712 4.75078 3.7535 4.32414 4.40594 4.14921C5.05838 3.97429 5.75357 4.06539 6.33892 4.4025C6.53258 4.51396 6.75213 4.57257 6.97558 4.57245C7.19903 4.57234 7.41852 4.5135 7.61206 4.40184C7.80561 4.29018 7.96641 4.12961 8.07836 3.93623C8.19031 3.74285 8.24947 3.52345 8.24992 3.3ZM14.2499 12C14.2499 12.5967 14.0129 13.169 13.5909 13.591C13.169 14.0129 12.5967 14.25 11.9999 14.25C11.4032 14.25 10.8309 14.0129 10.4089 13.591C9.98697 13.169 9.74992 12.5967 9.74992 12C9.74992 11.4033 9.98697 10.831 10.4089 10.409C10.8309 9.98705 11.4032 9.75 11.9999 9.75C12.5967 9.75 13.169 9.98705 13.5909 10.409C14.0129 10.831 14.2499 11.4033 14.2499 12ZM16.4999 12C16.4999 13.1935 16.0258 14.3381 15.1819 15.182C14.338 16.0259 13.1934 16.5 11.9999 16.5C10.8064 16.5 9.66185 16.0259 8.81794 15.182C7.97402 14.3381 7.49992 13.1935 7.49992 12C7.49992 10.8065 7.97402 9.66193 8.81794 8.81802C9.66185 7.97411 10.8064 7.5 11.9999 7.5C13.1934 7.5 14.338 7.97411 15.1819 8.81802C16.0258 9.66193 16.4999 10.8065 16.4999 12Z" fill="#91D200"/>
</svg>