<svg xmlns="http://www.w3.org/2000/svg" width="24" height="23" viewBox="0 0 24 23" fill="none">
  <path fill-rule="evenodd" clip-rule="evenodd" d="M8.0004 3.9986C8.00065 3.2616 8.20452 2.539 8.58952 1.91054C8.97452 1.28209 9.52568 0.772207 10.1822 0.43718C10.8387 0.102152 11.575 -0.0449984 12.3098 0.0119687C13.0446 0.0689357 13.7495 0.327805 14.3465 0.760008C14.9435 1.19221 15.4095 1.78094 15.693 2.46122C15.9765 3.14151 16.0666 3.8869 15.9532 4.61513C15.8399 5.34335 15.5275 6.02611 15.0506 6.58804C14.5737 7.14997 13.9508 7.56922 13.2507 7.79953V13.7564L17.3559 15.9984C18.0696 15.3698 18.9841 15.016 19.9351 15.0007C20.8861 14.9853 21.8115 15.3093 22.5452 15.9145C23.279 16.5197 23.773 17.3665 23.9388 18.303C24.1045 19.2396 23.9311 20.2045 23.4497 21.0248C22.9682 21.845 22.2102 22.4669 21.3117 22.7788C20.4131 23.0907 19.4328 23.0722 18.5467 22.7267C17.6605 22.3813 16.9264 21.7313 16.4762 20.8935C16.0259 20.0558 15.8889 19.085 16.0898 18.1554L11.9996 15.9224L7.9114 18.1554C7.97007 18.428 7.99974 18.709 8.0004 18.9983C8.00035 19.913 7.68681 20.8 7.11204 21.5115C6.53726 22.2231 5.73597 22.7161 4.84173 22.9085C3.94748 23.101 3.01429 22.9811 2.1977 22.569C1.38111 22.1568 0.730448 21.4773 0.354156 20.6436C-0.022136 19.8099 -0.101323 18.8725 0.129792 17.9875C0.360907 17.1025 0.888364 16.3235 1.62425 15.7802C2.36014 15.2369 3.26 14.9623 4.17385 15.002C5.08771 15.0417 5.96035 15.3933 6.64634 15.9984L10.7495 13.7574V7.79854C9.9496 7.53516 9.2532 7.02604 8.75957 6.34373C8.26594 5.66142 8.00027 4.84073 8.0004 3.9986Z" fill="#91D200"/>
</svg>