<svg width="56" height="54" viewBox="0 0 56 54" fill="none" xmlns="http://www.w3.org/2000/svg">
<path fill-rule="evenodd" clip-rule="evenodd" d="M18.6667 9.33024C18.6672 7.61054 19.1429 5.92444 20.0412 4.45802C20.9395 2.99159 22.2255 1.80185 23.7572 1.0201C25.2889 0.238359 27.0069 -0.104998 28.7214 0.0279274C30.436 0.160853 32.0805 0.764892 33.4734 1.77338C34.8664 2.78187 35.9536 4.1556 36.6151 5.74296C37.2767 7.33032 37.4868 9.06959 37.2223 10.7688C36.9578 12.468 36.229 14.0612 35.1163 15.3724C34.0036 16.6836 32.5502 17.6618 30.9167 18.1992V32.0989L40.495 37.3302C42.1604 35.8634 44.2939 35.0381 46.5129 35.0022C48.7318 34.9663 50.891 35.7222 52.6029 37.1344C54.3149 38.5466 55.4676 40.5225 55.8544 42.7078C56.2411 44.8931 55.8365 47.1447 54.7132 49.0586C53.5898 50.9726 51.8213 52.4236 49.7248 53.1514C47.6283 53.8792 45.341 53.8362 43.2734 53.03C41.2057 52.2238 39.493 50.7073 38.4425 48.7525C37.3919 46.7976 37.0723 44.5324 37.541 42.3632L27.9977 37.1529L18.459 42.3632C18.5959 42.9995 18.6651 43.6551 18.6667 44.3302C18.6666 46.4645 17.935 48.5342 16.5939 50.1945C15.2528 51.8547 13.3833 53.0052 11.2968 53.4542C9.21032 53.9032 7.033 53.6235 5.12772 52.6618C3.22243 51.7001 1.70429 50.1145 0.826322 48.1692C-0.0516481 46.2239 -0.236409 44.0365 0.302833 41.9715C0.842075 39.9065 2.07274 38.0887 3.78972 36.8211C5.50671 35.5535 7.60627 34.9125 9.73849 35.0052C11.8707 35.0978 13.9068 35.9184 15.5073 37.3302L25.081 32.1012V18.1969C23.2146 17.5823 21.5897 16.3944 20.438 14.8023C19.2862 13.2102 18.6663 11.2952 18.6667 9.33024Z" fill="#F7F7F7"/>
</svg>
