<svg xmlns="http://www.w3.org/2000/svg" width="24" height="24" viewBox="0 0 24 24" fill="none">
  <path d="M19.8899 2.54C19.8054 2.37695 19.6777 2.24031 19.5207 2.14506C19.3637 2.04981 19.1835 1.99962 18.9999 2H9.99987C9.60987 2 9.24987 2.23 9.08987 2.59L4.08987 13.59C3.94987 13.9 3.97987 14.26 4.15987 14.55C4.33987 14.84 4.65987 15.01 4.99987 15.01H9.99987V21.01C9.99987 21.2752 10.1052 21.5296 10.2928 21.7171C10.4803 21.9046 10.7347 22.01 10.9999 22.01C11.3099 22.01 11.6199 21.86 11.8099 21.6L19.8099 10.6C19.9176 10.4508 19.9821 10.2748 19.9962 10.0913C20.0103 9.90776 19.9735 9.72393 19.8899 9.56C19.8068 9.39509 19.6796 9.2564 19.5225 9.15933C19.3654 9.06225 19.1845 9.01056 18.9999 9.01H15.9399L19.8099 3.59C19.9176 3.4408 19.9821 3.26476 19.9962 3.08126C20.0103 2.89776 19.9735 2.71393 19.8899 2.55V2.54ZM13.1899 9.42C13.0825 9.56899 13.0183 9.74474 13.0045 9.92787C12.9906 10.111 13.0277 10.2944 13.1114 10.4578C13.1952 10.6213 13.3225 10.7584 13.4793 10.854C13.6361 10.9497 13.8162 11.0002 13.9999 11H17.0399L11.9999 17.92V14C11.9999 13.45 11.5499 13 10.9999 13H6.54987L10.6399 4H17.0499L13.1799 9.42H13.1899Z" fill="#051725"/>
</svg>