<svg xmlns="http://www.w3.org/2000/svg" width="16" height="16" viewBox="0 0 16 16" fill="none">
  <path d="M13.2599 1.69325C13.2036 1.58456 13.1184 1.49346 13.0138 1.42996C12.9091 1.36646 12.789 1.333 12.6666 1.33325H6.66658C6.40658 1.33325 6.16658 1.48659 6.05992 1.72659L2.72658 9.05992C2.63325 9.26659 2.65325 9.50659 2.77325 9.69992C2.89325 9.89325 3.10658 10.0066 3.33325 10.0066H6.66658V14.0066C6.66658 14.1834 6.73682 14.353 6.86184 14.478C6.98687 14.603 7.15644 14.6733 7.33325 14.6733C7.53992 14.6733 7.74658 14.5733 7.87325 14.3999L13.2066 7.06659C13.2784 6.96712 13.3214 6.84976 13.3308 6.72742C13.3402 6.60509 13.3157 6.48254 13.2599 6.37325C13.2045 6.26331 13.1198 6.17085 13.015 6.10613C12.9103 6.04142 12.7897 6.00696 12.6666 6.00659H10.6266L13.2066 2.39325C13.2784 2.29378 13.3214 2.17642 13.3308 2.05409C13.3402 1.93176 13.3157 1.8092 13.2599 1.69992V1.69325ZM8.79325 6.27992C8.72165 6.37924 8.67888 6.49641 8.66966 6.6185C8.66043 6.74059 8.68511 6.86285 8.74096 6.97181C8.79682 7.08076 8.88168 7.17217 8.9862 7.23595C9.09071 7.29973 9.21081 7.3334 9.33325 7.33325H11.3599L7.99992 11.9466V9.33325C7.99992 8.96659 7.69992 8.66659 7.33325 8.66659H4.36658L7.09325 2.66659H11.3666L8.78658 6.27992H8.79325Z" fill="#91D200"/>
</svg>