<svg width="32" height="32" viewBox="0 0 32 32" fill="none" xmlns="http://www.w3.org/2000/svg">
<path d="M28.9466 27.0534L27.0533 28.9467C26.8034 29.195 26.4655 29.3344 26.1133 29.3344C25.761 29.3344 25.4231 29.195 25.1733 28.9467L9.33325 13.1334C8.8997 13.2591 8.45129 13.3264 7.99992 13.3334C7.15099 13.3327 6.31447 13.1295 5.5599 12.7405C4.80534 12.3515 4.15454 11.788 3.6616 11.0969C3.16866 10.4057 2.84784 9.60686 2.72579 8.76675C2.60375 7.92664 2.68402 7.06953 2.95992 6.26669L6.34658 9.65335L7.05325 8.94669L8.94658 7.05335L9.65325 6.34669L6.26658 2.96002C7.06943 2.68412 7.92654 2.60385 8.76665 2.7259C9.60676 2.84794 10.4056 3.16877 11.0968 3.6617C11.7879 4.15464 12.3514 4.80544 12.7404 5.56001C13.1294 6.31457 13.3326 7.15109 13.3333 8.00002C13.3263 8.45139 13.259 8.8998 13.1333 9.33335L28.9466 25.1734C29.1949 25.4232 29.3343 25.7611 29.3343 26.1134C29.3343 26.4656 29.1949 26.8035 28.9466 27.0534ZM3.05325 25.1734C2.80492 25.4232 2.66553 25.7611 2.66553 26.1134C2.66553 26.4656 2.80492 26.8035 3.05325 27.0534L4.94658 28.9467C5.1964 29.195 5.53434 29.3344 5.88658 29.3344C6.23883 29.3344 6.57677 29.195 6.82658 28.9467L14.1199 21.6667L10.3466 17.8934M26.6666 2.66669L21.3333 5.33335V8.00002L18.4399 10.8934L21.1066 13.56L23.9999 10.6667H26.6666L29.3333 5.33335L26.6666 2.66669Z" fill="#F7F7F7"/>
</svg>
