<svg width="24" height="24" viewBox="0 0 24 24" fill="none" xmlns="http://www.w3.org/2000/svg">
<path d="M20.781 17.375L18.081 14H19C19.183 14.0002 19.3625 13.9502 19.519 13.8554C19.6755 13.7606 19.803 13.6246 19.8875 13.4623C19.972 13.3 20.0103 13.1176 19.9982 12.9351C19.9861 12.7525 19.9241 12.5767 19.819 12.427L12.819 2.42696C12.7437 2.31931 12.6479 2.22756 12.5372 2.15694C12.4264 2.08631 12.3028 2.0382 12.1735 2.01536C12.0441 1.99252 11.9115 1.99538 11.7833 2.0238C11.655 2.05221 11.5336 2.10561 11.426 2.18096C11.3404 2.24561 11.2658 2.3236 11.205 2.41196C11.18 2.42696 4.18 12.427 4.18 12.427C4.07519 12.5769 4.0135 12.7527 4.00166 12.9352C3.98981 13.1177 4.02826 13.3 4.11281 13.4622C4.19737 13.6244 4.32479 13.7603 4.48122 13.8551C4.63765 13.9499 4.81708 14 5 14H5.919L3.219 17.375C2.979 17.676 2.932 18.087 3.098 18.434C3.265 18.779 3.616 19 4 19H11V22C11 22.2652 11.1054 22.5195 11.2929 22.7071C11.4804 22.8946 11.7348 23 12 23C12.2652 23 12.5196 22.8946 12.7071 22.7071C12.8946 22.5195 13 22.2652 13 22V19H20C20.1883 18.9996 20.3726 18.9462 20.5319 18.8459C20.6912 18.7455 20.819 18.6023 20.9005 18.4326C20.9821 18.2629 21.0141 18.0736 20.993 17.8866C20.9718 17.6995 20.8984 17.5222 20.781 17.375ZM13 17V12C13 11.7347 12.8946 11.4804 12.7071 11.2929C12.5196 11.1053 12.2652 11 12 11C11.7348 11 11.4804 11.1053 11.2929 11.2929C11.1054 11.4804 11 11.7347 11 12V17H6.081L8.781 13.625C9.021 13.324 9.068 12.913 8.902 12.566C8.82024 12.3962 8.69219 12.253 8.53261 12.1529C8.37302 12.0528 8.1884 11.9998 8 12H6.92L12 4.74396L17.08 12H16C15.8118 12.0005 15.6276 12.054 15.4685 12.1544C15.3093 12.2549 15.1817 12.3981 15.1003 12.5678C15.0188 12.7374 14.9869 12.9266 15.0081 13.1136C15.0292 13.3006 15.1027 13.4778 15.22 13.625L17.92 17H13Z" fill="#F7F7F7"/>
</svg>
