<svg xmlns="http://www.w3.org/2000/svg" width="24" height="24" viewBox="0 0 24 24" fill="none">
  <g clip-path="url(#clip0_27_7339)">
    <path d="M5.28985 15.1311H17.6841C20.9606 15.1311 23.397 12.6441 23.397 9.558C23.397 6.38229 20.8007 4.05514 17.415 4.05514C16.1666 1.58743 13.8493 0 10.9628 0C7.2077 0 4.11127 2.93614 3.7817 6.65143C1.97399 7.17086 0.595703 8.74929 0.595703 10.8566C0.595703 13.2137 2.31385 15.1311 5.28985 15.1311ZM5.27013 13.5231C3.22242 13.5231 2.19385 12.3844 2.19385 10.9063C2.19385 9.69771 2.89285 8.619 4.59085 8.16986C5.14027 8.03014 5.33999 7.77043 5.3897 7.20129C5.61942 3.945 8.06656 1.59814 10.9628 1.59814C13.2103 1.59814 14.9777 2.82643 16.0564 5.04386C16.2861 5.523 16.5857 5.69271 17.175 5.69271C20.1313 5.69271 21.7993 7.48071 21.7993 9.60814C21.7993 11.7853 20.0614 13.5231 17.7844 13.5231H5.27013ZM14.2988 18.8366H12.2413L13.23 16.9389C13.35 16.7289 13.26 16.5591 13.0401 16.5591H10.8728C10.5836 16.5591 10.4833 16.659 10.3937 16.869L9.03513 19.965C8.92542 20.2149 9.03513 20.3644 9.29485 20.3644H11.0327L9.6647 23.6704C9.61456 23.8101 9.6347 23.9203 9.73456 23.9601C9.82456 24 9.93428 23.97 10.044 23.8603L14.4583 19.3359C14.6683 19.116 14.5881 18.8366 14.2988 18.8366Z" fill="#FF5050"/>
  </g>
  <defs>
    <clipPath id="clip0_27_7339">
      <rect width="24" height="24" fill="white"/>
    </clipPath>
  </defs>
</svg>