<?xml version="1.0" encoding="UTF-8"?>
<svg id="Capa_1" xmlns="http://www.w3.org/2000/svg" version="1.1" viewBox="0 0 48 48">
  <!-- Generator: Adobe Illustrator 30.3.0, SVG Export Plug-In . SVG Version: 2.1.3 Build 182)  -->
  <defs>
    <style>
      .st0 {
        fill: #051725;
      }

      .st1 {
        fill: #91d200;
      }

      .st2 {
        fill: #f7f7f7;
      }
    </style>
  </defs>
  <rect class="st0" width="48" height="48"/>
  <g>
    <g>
      <path class="st2" d="M33.5,27.29l-9.5,5.39v5.19l8.36-4.74c.71-.4,1.14-1.14,1.14-1.94v-3.89Z"/>
      <path class="st2" d="M14.5,22.1l9.5,5.39v5.19s-8.36-4.74-8.36-4.74c-.71-.4-1.14-1.14-1.14-1.94v-3.89Z"/>
      <path class="st2" d="M27.17,10.14l-3.17,1.8v5.19l2.03-1.15c.71-.4,1.14-1.14,1.14-1.94v-3.89Z"/>
      <path class="st2" d="M30.33,18.71l-6.33,3.59v5.19l5.19-2.95c.71-.4,1.14-1.14,1.14-1.94v-3.89Z"/>
      <path class="st2" d="M17.67,13.52l6.33,3.59v5.19s-5.19-2.95-5.19-2.95c-.71-.4-1.14-1.14-1.14-1.94v-3.89Z"/>
    </g>
    <g>
      <path class="st1" d="M30.35,10.35v-.21h1.25v.21h-.5v1.4h-.24v-1.4h-.5Z"/>
      <path class="st1" d="M31.87,10.14h.29l.51,1.25h.02l.51-1.25h.29v1.61h-.23v-1.17h-.01l-.47,1.16h-.19l-.47-1.16h-.01v1.17h-.23v-1.61Z"/>
    </g>
  </g>
</svg>